<svg width="37" height="47" viewBox="0 0 37 47" fill="none" xmlns="http://www.w3.org/2000/svg">
<path d="M0.285156 42.8075V0.428467H15.1735C19.3453 0.428467 23.0936 1.33276 26.4154 3.13842C29.7371 4.94554 32.3195 7.45275 34.1637 10.6586C36.0066 13.8659 36.928 17.4787 36.928 21.4969C36.928 25.5152 36.0066 29.2097 34.1637 32.4564C32.3195 35.7045 29.7473 38.2409 26.4459 40.067C23.1431 41.893 19.3861 42.8075 15.1735 42.8075H0.285156Z" fill="#FCFC30"/>
<mask id="mask0_51_540" style="mask-type:alpha" maskUnits="userSpaceOnUse" x="7" y="19" width="23" height="28">
<path d="M10.6539 46.451L7.26074 31.185L9.05875 30.7343L11.2435 32.7255L13.1072 37.3177L13.8792 20.2005L14.9709 19.1094L16.8375 19.6973L17.2199 21.0364V32.9822L18.0415 27.6957L19.9431 27.1253L21.1997 28.4951V32.9822L21.8462 29.2171L23.2925 28.304L25.0044 29.3689L25.2336 32.8684L25.8042 30.6628L27.0972 29.9013L28.9244 31.0435L29.0762 41.3132L27.2549 46.451H10.6539Z" fill="#465EFF"/>
</mask>
<g mask="url(#mask0_51_540)">
<path d="M0.283203 42.8075V0.428467H15.1715C19.3434 0.428467 23.0916 1.33276 26.4134 3.13842C29.7352 4.94554 32.3175 7.45275 34.1618 10.6586C36.0046 13.8659 36.9261 17.4787 36.9261 21.4969C36.9261 25.5152 36.0046 29.2097 34.1618 32.4564C32.3175 35.7045 29.7454 38.2409 26.444 40.067C23.1411 41.893 19.3841 42.8075 15.1715 42.8075H0.283203Z" fill="#465EFF"/>
</g>
<path d="M18.0467 13.9613L16.4048 14.0576L15.1629 15.1648L14.9746 16.6761L15.6124 18.0969L17.425 18.7271L19.3208 18.0006L19.8257 16.043L19.3091 14.8599L18.0467 13.9613Z" fill="#465EFF"/>
<path d="M8.15915 5.25842L6.46622 5.47286L5.22425 6.58006L5.12793 8.45166L6.25606 9.8652L7.8804 10.1132L9.4274 9.23502L9.88565 7.4597L9.37048 6.27518L8.15915 5.25842Z" fill="#465EFF"/>
<path d="M17.9249 5.47253H16.4042L15.1622 6.57974L15.0674 8.45133L16.1941 9.86487L17.8184 10.1129L19.3668 9.23469L19.8251 7.45937L19.3085 6.27485L17.9249 5.47253Z" fill="#465EFF"/>
</svg>
