<svg width="42" height="42" viewBox="0 0 42 42" fill="none" xmlns="http://www.w3.org/2000/svg">
<path d="M25.4877 3.98757C26.1288 3.72014 26.8643 3.86929 27.3563 4.35957C27.5877 4.591 33.0014 10.1899 33.0014 26.143C33.0014 27.091 32.2351 27.8573 31.2871 27.8573H27.8585V38.143H24.43V5.57157C24.43 4.879 24.8482 4.25157 25.4877 3.98757Z" fill="#FDFEFF"/>
<path d="M15.8585 17.0967C16.8785 16.5002 17.5728 15.4064 17.5728 14.143V3.8573H21.0014V14.143C21.0014 17.3282 18.8088 19.9887 15.8585 20.7567V38.143H12.43V20.7567C9.47968 19.9904 7.28711 17.3282 7.28711 14.143V3.8573H10.7157V14.143C10.7157 15.4064 11.41 16.5002 12.43 17.0967V3.8573H15.8585V17.0967Z" fill="#FDFEFF"/>
</svg>
