<svg xmlns="http://www.w3.org/2000/svg" xml:space="preserve" width="39.96" height="48"
  style="shape-rendering:geometricPrecision;text-rendering:geometricPrecision;image-rendering:optimizeQuality;fill-rule:evenodd;clip-rule:evenodd"
  viewBox="0 0 10090 12126">
  <defs>
    <style>
      .fil2 {
        fill: #3333BD
      }
    </style>
  </defs>
  <g id="Layer_x0020_1">
    <g id="_348504928">
      <path
        d="M612 10961V0h3851c1079 0 2049 234 2908 701s1527 1116 2004 1945c477 830 715 1764 715 2803 0 1040-238 1995-715 2835s-1142 1496-1996 1968c-854 473-1826 709-2916 709H612z"
        style="fill:#aaaaaa" />
      <path
        d="M0 12126V1455h3749c1050 0 1994 228 2830 682 837 455 1487 1087 1951 1894s696 1717 696 2729-232 1942-696 2759c-464 818-1112 1457-1943 1917-832 459-1778 690-2838 690H0z"
        style="fill:#ffffff" />
      <path class="fil2"
        d="m4981 4628-413 25-313 278-47 381 160 358 457 158 477-182 127-493-130-298zM4951 2641h-383l-313 279-24 471 284 356 409 62 390-221 115-447-130-298zM2701 4628l-413 25-313 278-47 381 160 358 457 158 477-182 127-493-130-298zM2671 2641h-383l-313 279-24 471 284 356 409 62 390-221 115-447-130-298z" />
      <path style="fill:#3333BD"
        d="m3202 12117-788-3503 418-104 507 457 433 1054 179-3928 254-251 434 135 88 308v2741l191-1213 442-131 292 314v1030l150-864 336-209 398 244 53 803 133-506 300-175 425 262 35 2357-423 1179z" />
    </g>
  </g>
</svg>
