<?xml version="1.0" encoding="UTF-8" standalone="no"?>
<svg
   xml:space="preserve"
   width="39.96"
   height="48"
   style="shape-rendering:geometricPrecision;text-rendering:geometricPrecision;image-rendering:optimizeQuality;fill-rule:evenodd;clip-rule:evenodd"
   viewBox="0 0 10090 12126"
   version="1.1"
   id="svg16"
   sodipodi:docname="acessibilidade_digital.svg"
   inkscape:version="1.1.2 (0a00cf5339, 2022-02-04)"
   xmlns:inkscape="http://www.inkscape.org/namespaces/inkscape"
   xmlns:sodipodi="http://sodipodi.sourceforge.net/DTD/sodipodi-0.dtd"
   xmlns="http://www.w3.org/2000/svg"
   xmlns:svg="http://www.w3.org/2000/svg"><sodipodi:namedview
   id="namedview18"
   pagecolor="#ffffff"
   bordercolor="#666666"
   borderopacity="1.0"
   inkscape:pageshadow="2"
   inkscape:pageopacity="0.0"
   inkscape:pagecheckerboard="0"
   showgrid="false"
   inkscape:zoom="17.291667"
   inkscape:cx="19.980723"
   inkscape:cy="24"
   inkscape:window-width="1920"
   inkscape:window-height="1008"
   inkscape:window-x="1920"
   inkscape:window-y="0"
   inkscape:window-maximized="1"
   inkscape:current-layer="Layer_x0020_1" />
  <defs
   id="defs4">
    <style
   id="style2">
      .fil2 {
        fill: #3333BD
      }
    </style>
  
      
      
      
      
    </defs>
  <g
   id="Layer_x0020_1">
    <path
   d="M 612,10961 V 0 h 3851 c 1079,0 2049,234 2908,701 859,467 1527,1116 2004,1945 477,830 715,1764 715,2803 0,1040 -238,1995 -715,2835 -477,840 -1142,1496 -1996,1968 -854,473 -1826,709 -2916,709 z"
   style="fill:#aaaaaa"
   id="path6" /><path
   d="M 0,12126 V 1455 h 3749 c 1050,0 1994,228 2830,682 837,455 1487,1087 1951,1894 464,807 696,1717 696,2729 0,1012 -232,1942 -696,2759 -464,818 -1112,1457 -1943,1917 -832,459 -1778,690 -2838,690 z"
   style="fill:#ffffff"
   id="path8" /><path
   class="fil2"
   d="m 4981,4628 -413,25 -313,278 -47,381 160,358 457,158 477,-182 127,-493 -130,-298 z m -30,-1987 h -383 l -313,279 -24,471 284,356 409,62 390,-221 115,-447 -130,-298 z m -2280,0 h -383 l -313,279 -24,471 284,356 409,62 390,-221 115,-447 -130,-298 z"
   id="path10"
   sodipodi:nodetypes="cccccccccccccccccccccccccccccc" /><path
   style="fill:#3333bd"
   d="m 3202,12117 -788,-3503 418,-104 507,457 433,1054 179,-3928 254,-251 434,135 88,308 v 2741 l 191,-1213 442,-131 292,314 v 1030 l 150,-864 336,-209 398,244 53,803 133,-506 300,-175 425,262 35,2357 -423,1179 z"
   id="path12" />
  </g>
</svg>
