<svg width="48" height="48" viewBox="0 0 48 48" fill="none" xmlns="http://www.w3.org/2000/svg">
  <path
    d="M31.8125 17.3333L27.75 14.625L4 30.6667L24 44L44 30.6667L35.6667 25.1458L25.6667 31.9167L30.0417 34.7292L24 38.375L12.6458 30.6667L31.8125 17.3333Z"
    fill="currentColor" />
  <path d="M12.3333 38.4792L8.16667 35.6667L4 38.4792V44L12.3333 38.4792Z" fill="currentColor" />
  <path
    d="M44 17.3333L24 4L4 17.3333L12.3333 22.8542L22.3333 16.0833L17.9583 13.2708L24 9.625L35.3542 17.3333L16.1875 30.6667L20.25 33.375L44 17.3333Z"
    fill="currentColor" />
  <path d="M44 9.52083V4L35.6667 9.52083L39.8333 12.3333L44 9.52083Z" fill="currentColor" />
</svg>
