<svg width="57" height="60" viewBox="0 0 57 60" fill="none" xmlns="http://www.w3.org/2000/svg">
  <path fill-rule="evenodd" clip-rule="evenodd"
    d="M7.42193 12.0147L7.4219 12.0163L7.4219 12.0136L7.42193 12.0147ZM7.42193 12.0147C7.46573 10.6413 7.79795 9.37758 8.44833 8.19642C9.35546 6.54865 10.1102 4.85821 9.84696 2.90395C9.81841 2.69311 9.78398 2.48229 9.74955 2.27148C9.72659 2.13094 9.70366 1.9904 9.68242 1.84986C9.62098 1.43362 9.74467 1.08157 10.1191 0.869188C10.4853 0.659546 10.8552 0.701399 11.1988 0.946183C13.0392 2.25076 13.8565 4.05146 13.7591 6.26675C13.6942 7.75169 13.1829 9.09775 12.3094 10.3046C11.1032 11.967 11.0859 13.8141 11.4903 15.7111C11.6011 16.2299 11.611 16.6734 11.1174 16.989C10.64 17.2937 10.2449 17.0681 9.85769 16.7829C8.23014 15.594 7.52758 13.942 7.42193 12.0147ZM19.799 10.9908C20.4916 10.0362 20.8313 8.92253 20.7845 7.95474L20.7872 7.95471C20.7774 6.12574 20.1245 4.85274 18.8572 3.88696C18.5336 3.63952 18.165 3.55536 17.7893 3.73329C17.376 3.93007 17.356 4.30717 17.3791 4.70553C17.3915 4.92073 17.4195 5.13326 17.4476 5.34575C17.5042 5.77468 17.5608 6.20354 17.4888 6.65442C17.3358 7.61452 16.9178 8.45607 16.4989 9.29952C16.3936 9.51151 16.2883 9.7236 16.187 9.93774C15.0832 12.279 15.6556 14.9669 17.5103 16.2727C17.8931 16.544 18.2754 16.6949 18.6965 16.4286C19.1202 16.1596 19.1375 15.7638 19.0335 15.2962C18.6888 13.7626 18.8283 12.3235 19.799 10.9908ZM56.349 32.7241C55.0948 27.6136 50.9224 24.1507 45.5819 23.7995L45.5492 23.7973C45.2369 23.7762 45.0348 23.7626 44.9966 23.3311C44.7691 20.8318 43.3287 19.5618 40.7826 19.5716L22.5987 19.6413C20.8722 19.6479 19.1455 19.6574 17.4187 19.6667L17.4179 19.6667C13.0332 19.6906 8.64804 19.7145 4.26402 19.6929C2.00575 19.6829 0.171034 21.4333 0.209581 23.7301C0.289653 28.4954 0.29482 33.2641 0.299986 38.0311C0.301599 39.5203 0.303213 41.0095 0.307111 42.4984C0.311855 43.7126 0.418691 44.91 0.649175 46.1016C2.12825 53.7866 9.36762 59.85 17.2261 59.9244C19.941 59.9492 22.6556 59.9295 25.3693 59.9094L25.3714 59.9094C26.3332 59.9021 27.2949 59.8952 28.2564 59.8901C28.864 59.8875 29.466 59.8427 30.0705 59.7387C36.8138 58.6029 41.469 54.8469 43.9258 48.5377C44.4208 47.268 44.9811 46.881 46.2606 46.7745C53.1595 46.1972 57.9882 39.4109 56.3434 32.7161L56.349 32.7241ZM46.7203 42.0158C45.5845 42.3007 45.0006 42.2336 45.0517 40.8374C45.0994 39.5699 45.0825 38.2992 45.0656 37.0284L45.0656 37.027C45.0587 36.4832 45.0513 35.9393 45.0491 35.396L45.0271 29.7272C45.0238 28.8314 45.4658 28.4366 46.351 28.6445C49.5772 29.3996 51.7779 31.8271 51.9065 35.1851C52.0292 38.3747 49.9112 41.2145 46.7177 42.0158L46.7203 42.0158ZM12.362 32.6126C12.8448 32.8768 13.3824 33.0078 13.9748 33.0055C14.3697 33.004 14.7131 32.9596 15.005 32.8725C15.3048 32.7852 15.5965 32.6472 15.8801 32.4583L15.4719 31.0866C15.2434 31.2205 15.0227 31.3231 14.8097 31.3943C14.6046 31.4577 14.3638 31.4899 14.0873 31.491C13.6293 31.4927 13.2495 31.3377 12.9482 31.0259C12.6547 30.714 12.507 30.2999 12.505 29.7834C12.503 29.2749 12.6475 28.8674 12.9385 28.5611C13.2375 28.247 13.6199 28.0891 14.0859 28.0873C14.5598 28.0855 14.9987 28.209 15.4025 28.4578L15.7999 27.0713C15.5069 26.9003 15.2181 26.7762 14.9335 26.6991C14.6488 26.6141 14.3327 26.5722 13.9852 26.5736C13.4086 26.5758 12.8761 26.7187 12.3875 27.0022C11.9067 27.2779 11.5252 27.6628 11.2428 28.1568C10.9603 28.6431 10.8203 29.1874 10.8227 29.7899C10.8251 30.4237 10.9616 30.9866 11.2321 31.4785C11.5104 31.9625 11.8871 32.3406 12.362 32.6126ZM21.3514 27.2261C20.8678 26.7741 20.1916 26.5498 19.3228 26.5531C18.9279 26.5546 18.5253 26.6148 18.1151 26.7338C17.7127 26.8449 17.3342 26.9989 16.9796 27.1959L17.3521 28.5442C18.0141 28.1739 18.661 27.9876 19.2929 27.9852C20.1064 27.982 20.5145 28.3169 20.5171 28.9898L20.5173 29.025C19.6093 29.1146 18.8792 29.2543 18.3271 29.4442C17.7828 29.6341 17.385 29.886 17.1334 30.2C16.8898 30.5061 16.7689 30.886 16.7706 31.3398C16.7726 31.8406 16.94 32.243 17.2729 32.5469C17.6137 32.8429 18.0724 32.9898 18.649 32.9876C19.0834 32.9859 19.4661 32.8945 19.7971 32.7132C20.136 32.5319 20.3997 32.3001 20.5882 32.0177L20.5916 32.8862L22.108 32.8804L22.0934 29.1481C22.0902 28.3187 21.8429 27.678 21.3514 27.2261ZM19.757 31.5514C19.5285 31.6775 19.2799 31.741 19.0114 31.7421C18.7902 31.7429 18.6202 31.6888 18.5013 31.5797C18.3824 31.4706 18.3226 31.3222 18.3219 31.1344C18.3207 30.8292 18.5093 30.5977 18.8878 30.4397C19.2663 30.2818 19.8109 30.1741 20.5215 30.1166L20.5218 30.1987C20.523 30.4961 20.453 30.7624 20.3117 30.9976C20.1784 31.2329 19.9935 31.4175 19.757 31.5514ZM24.3222 28.2006L24.3404 32.8718L26.0109 32.8655L25.9927 28.1942L27.6513 28.1878L27.8471 26.7434L25.9752 26.7506L25.9737 26.375C25.9724 26.0464 26.0623 25.7917 26.2432 25.6111C26.4242 25.4226 26.6805 25.3277 27.0122 25.3264C27.3755 25.325 27.7273 25.4098 28.0676 25.5806L28.4416 24.2646C27.9587 23.977 27.3855 23.8344 26.722 23.8369C26.2481 23.8388 25.826 23.9382 25.4555 24.1352C25.093 24.3323 24.8097 24.6111 24.6058 24.9718C24.4097 25.3247 24.3126 25.7319 24.3144 26.1936L24.3166 26.7569L23.0607 26.7618L23.0664 28.2054L24.3222 28.2006ZM33.9078 30.969C33.2613 31.2766 32.6301 31.4316 32.014 31.434C31.706 31.4352 31.4332 31.3697 31.1958 31.2376C30.9662 31.1055 30.7838 30.9223 30.6486 30.6881C31.6984 30.5197 32.5033 30.321 33.0632 30.0919C33.631 29.8628 34.017 29.6071 34.2212 29.3246C34.4255 29.0343 34.5268 28.6896 34.5252 28.2906C34.5239 27.9385 34.42 27.6259 34.2135 27.3528C34.0071 27.0797 33.7259 26.8695 33.3699 26.7222C33.0139 26.5671 32.6107 26.4904 32.1605 26.4921C31.5524 26.4945 30.9922 26.6375 30.4799 26.9211C29.9755 27.2047 29.5742 27.6014 29.2761 28.1112C28.9858 28.6209 28.842 29.2005 28.8445 29.8499C28.8468 30.4368 28.9832 30.9644 29.2535 31.4328C29.5239 31.9013 29.8887 32.2716 30.3478 32.5437C30.8149 32.8079 31.3288 32.939 31.8895 32.9368C32.3634 32.935 32.7858 32.8903 33.1567 32.8028C33.5276 32.7075 33.8863 32.5614 34.2331 32.3645L33.9078 30.969ZM30.9828 28.2924C31.3134 27.9938 31.6959 27.8437 32.1303 27.842C32.3672 27.8411 32.5531 27.8912 32.6877 27.9924C32.8224 28.0858 32.89 28.2225 32.8907 28.4025C32.8914 28.5668 32.8129 28.7079 32.6554 28.8259C32.5058 28.9439 32.2535 29.0544 31.8985 29.1574C31.5513 29.2605 31.0581 29.3719 30.4188 29.4918C30.4722 28.9908 30.6602 28.591 30.9828 28.2924ZM31.0559 25.7569L32.5605 25.7512L34.5788 23.7951L32.6239 23.8026L31.0559 25.7569ZM14.1144 40.9519C13.5221 40.9541 12.9844 40.8232 12.5016 40.5591C12.0266 40.287 11.65 39.9088 11.3717 39.4248C11.1012 38.9331 10.9647 38.3699 10.9623 37.7364C10.9599 37.1339 11.0999 36.5894 11.3824 36.1033C11.6648 35.6092 12.0464 35.2243 12.5271 34.9486C13.0157 34.6651 13.5483 34.5222 14.1248 34.52C14.4724 34.5186 14.7884 34.5605 15.0731 34.6454C15.3578 34.7226 15.6466 34.8467 15.9394 35.0177L15.5421 36.4042C15.1383 36.1553 14.6994 36.0318 14.2255 36.0337C13.7595 36.0354 13.3771 36.1934 13.0782 36.5075C12.7871 36.8138 12.6426 37.2214 12.6446 37.7298C12.6466 38.2463 12.7943 38.6603 13.0878 38.9721C13.3892 39.284 13.7689 39.439 14.227 39.4375C14.5034 39.4364 14.7442 39.404 14.9493 39.3409C15.1623 39.2694 15.383 39.1669 15.6116 39.033L16.0197 40.4048C15.7361 40.5937 15.4444 40.7316 15.1447 40.8188C14.8527 40.9059 14.5093 40.9504 14.1144 40.9519ZM20.0164 40.9293C19.4241 40.9315 18.8785 40.7929 18.3798 40.5131C17.889 40.2253 17.4965 39.8395 17.2024 39.3555C16.9161 38.8638 16.7718 38.3203 16.7695 37.7258C16.7672 37.139 16.9073 36.5985 17.1897 36.1045C17.48 35.6104 17.8694 35.2216 18.358 34.938C18.8545 34.6466 19.3989 34.4997 19.9913 34.4975C20.5837 34.4952 21.1252 34.6379 21.6161 34.9255C22.1148 35.2053 22.5072 35.5911 22.7935 36.0829C23.0877 36.5748 23.2359 37.1142 23.2382 37.701C23.2405 38.2955 23.0965 38.8401 22.8062 39.3339C22.5238 39.8201 22.1343 40.2089 21.6379 40.5004C21.1493 40.7841 20.6088 40.9271 20.0164 40.9293ZM20.0105 39.4153C20.4607 39.4134 20.8313 39.2515 21.1223 38.9298C21.4133 38.6077 21.5578 38.2003 21.5559 37.7076C21.554 37.2145 21.4062 36.8081 21.1128 36.4885C20.8192 36.1688 20.4474 36.0098 19.9972 36.0115C19.547 36.0132 19.1764 36.1751 18.8855 36.497C18.5945 36.8189 18.4499 37.2265 18.4519 37.7193C18.4538 38.2124 18.6015 38.6187 18.895 38.9382C19.1885 39.2581 19.5603 39.4171 20.0105 39.4153ZM24.6561 40.8177L24.6318 34.5853L26.1483 34.5795L26.152 35.5419C26.3324 35.2204 26.5841 34.9612 26.9072 34.7644C27.2303 34.5675 27.5735 34.4684 27.9368 34.467C28.3791 34.4653 28.7586 34.5578 29.0752 34.7443C29.3919 34.9231 29.6377 35.1804 29.8128 35.5161C30.2839 34.8101 30.9421 34.4555 31.7872 34.4522C32.5612 34.4492 33.1467 34.7209 33.5438 35.2671C33.9487 35.8054 34.153 36.5519 34.1568 37.5066L34.1696 40.7812L32.4872 40.7874L32.4745 37.5365C32.4726 37.0434 32.4 36.6643 32.2568 36.3988C32.1136 36.1333 31.8406 36.0013 31.4378 36.0029C31.0745 36.0043 30.7827 36.1306 30.5626 36.3818C30.3424 36.633 30.2331 36.9701 30.2348 37.3924L30.2481 40.7962L28.5658 40.8027L28.5531 37.5631C28.5512 37.0704 28.4786 36.6911 28.3354 36.4256C28.2001 36.1522 27.931 36.0163 27.5282 36.0179C27.157 36.0193 26.8613 36.1612 26.6413 36.4438C26.4212 36.7263 26.3121 37.0945 26.3139 37.5482L26.3266 40.8111L24.6561 40.8177ZM13.9778 53.5284C14.7368 53.9821 15.6376 54.2068 16.6802 54.2028C17.6898 54.1991 18.5723 53.962 19.3278 53.4915C20.0832 53.021 20.6622 52.3612 21.0649 51.5114C21.4787 50.6619 21.6834 49.6826 21.679 48.5738L21.656 42.6866L19.2691 42.6957L19.292 48.5665C19.2963 49.6538 19.0801 50.4861 18.6433 51.0642C18.2066 51.6419 17.5547 51.9326 16.6878 51.9359C15.8208 51.9392 15.1557 51.6536 14.6925 51.0792C14.2293 50.4941 13.9956 49.6632 13.9914 48.5869L13.9684 42.7158L11.5815 42.7253L11.6046 48.6285C11.609 49.7486 11.8158 50.7316 12.2252 51.5781C12.6345 52.4137 13.2187 53.0637 13.9778 53.5284ZM22.9446 54.0321L25.7431 54.0215L28.6077 49.8682L31.4882 53.9992L34.4348 53.9879L30.0985 48.0194L34.0448 42.6388L31.2298 42.6497L28.7255 46.3124L26.1761 42.6691L23.213 42.6804L27.2345 48.112L22.9446 54.0321Z"
    fill="currentColor" />
</svg>
