<svg width="394" height="60" viewBox="0 0 394 60" fill="none" xmlns="http://www.w3.org/2000/svg">
<path d="M293.699 52.5488V0H312.16C317.333 0 321.981 1.12129 326.1 3.36026C330.219 5.60104 333.421 8.70991 335.708 12.6851C337.993 16.6621 339.135 21.1418 339.135 26.1243C339.135 31.1068 337.993 35.6879 335.708 39.7137C333.421 43.7413 330.231 46.8863 326.138 49.1506C322.042 51.4149 317.384 52.5488 312.16 52.5488H293.699Z" fill="#FCFC30"/>
<mask id="mask0_48_1491" style="mask-type:alpha" maskUnits="userSpaceOnUse" x="302" y="23" width="28" height="35">
<path d="M306.557 57.0664L302.35 38.137L304.579 37.5781L307.288 40.0472L309.599 45.7413L310.556 24.5166L311.91 23.1636L314.225 23.8925L314.699 25.553V40.3655L315.717 33.8103L318.075 33.1031L319.634 34.8016V40.3655L320.435 35.6969L322.229 34.5646L324.351 35.885L324.635 40.2244L325.343 37.4895L326.946 36.5453L329.212 37.9616L329.4 50.6957L327.142 57.0664H306.557Z" fill="#465EFF"/>
</mask>
<g mask="url(#mask0_48_1491)">
<path d="M293.697 52.5486V-0.000244141H312.158C317.331 -0.000244141 321.979 1.12105 326.098 3.36002C330.217 5.60079 333.419 8.70967 335.706 12.6848C337.991 16.6618 339.133 21.1415 339.133 26.1241C339.133 31.1066 337.991 35.6876 335.706 39.7134C333.419 43.741 330.23 46.8861 326.136 49.1504C322.04 51.4146 317.382 52.5486 312.158 52.5486H293.697Z" fill="#465EFF"/>
</g>
<path d="M315.723 16.7803L313.688 16.8997L312.148 18.2726L311.914 20.1465L312.705 21.9083L314.952 22.6897L317.303 21.7889L317.929 19.3615L317.289 17.8945L315.723 16.7803Z" fill="#465EFF"/>
<path d="M303.464 5.98877L301.365 6.25467L299.825 7.62757L299.705 9.94829L301.104 11.701L303.118 12.0085L305.036 10.9196L305.605 8.71829L304.966 7.24952L303.464 5.98877Z" fill="#465EFF"/>
<path d="M315.574 6.25439H313.688L312.148 7.62729L312.03 9.94801L313.427 11.7008L315.441 12.0083L317.361 10.9194L317.93 8.71801L317.289 7.24925L315.574 6.25439Z" fill="#465EFF"/>
<path d="M370.412 57.9393C372.96 54.7889 375.173 51.7056 377.051 48.6893L365.634 22.4976H374.234L381.477 41.2993L383.338 37.2775C384.411 34.9315 385.198 32.9206 385.701 31.2449C386.204 29.5356 386.456 27.8767 386.456 26.268C386.456 25.2625 386.338 24.0057 386.104 22.4976H393.799C393.933 23.6371 394 24.6928 394 25.6647C394 27.8096 393.682 29.8875 393.044 31.8984C392.407 33.9093 391.452 36.2553 390.178 38.9365L387.814 43.9134C386.674 46.3265 385.198 49.0077 383.388 51.9569C381.611 54.9062 380.001 57.3025 378.56 59.1458L370.412 57.9393Z" fill="#FCFC30"/>
<path d="M353.93 22.0452C357.651 22.0452 360.535 23.0338 362.58 25.0112C364.659 26.9551 365.699 29.7033 365.699 33.2558V49.2423H359.16V45.5222C358.322 46.7622 357.182 47.7677 355.74 48.5385C354.332 49.2758 352.723 49.6445 350.912 49.6445C348.498 49.6445 346.57 49.0245 345.128 47.7844C343.72 46.5109 343.016 44.8351 343.016 42.7572C343.016 40.8134 343.502 39.2214 344.474 37.9814C345.447 36.7078 347.056 35.6186 349.302 34.7137C351.549 33.7753 354.751 32.8369 358.909 31.8985C358.808 30.826 358.339 29.9714 357.501 29.3346C356.662 28.6978 355.422 28.3794 353.779 28.3794C351.297 28.3794 348.548 29.1503 345.53 30.692L343.921 24.8101C345.396 23.9387 347.006 23.2685 348.749 22.7992C350.526 22.2965 352.253 22.0452 353.93 22.0452ZM352.471 44.1146C354.248 44.1146 355.757 43.5281 356.998 42.3551C358.272 41.182 358.909 39.6404 358.909 37.73V36.8251C355.723 37.663 353.393 38.4506 351.918 39.1879C350.442 39.8917 349.705 40.7799 349.705 41.8523C349.705 42.5226 349.956 43.0756 350.459 43.5113C350.962 43.9135 351.633 44.1146 352.471 44.1146Z" fill="#FCFC30"/>
<path d="M253.778 58.1436C256.499 54.7334 258.773 51.4955 260.598 48.4299L249.076 21.9756H255.948L264.112 42.4363L266.592 36.9078C267.694 34.4622 268.521 32.3093 269.072 30.4492C269.623 28.5547 269.899 26.798 269.899 25.179C269.899 24.4901 269.812 23.4223 269.64 21.9756H275.789C275.927 23.009 275.995 23.9218 275.995 24.714C275.995 26.8497 275.668 28.9681 275.014 31.0692C274.359 33.136 273.378 35.5472 272.069 38.3028L269.279 44.2964C268.073 46.8109 266.575 49.5666 264.783 52.5634C263.027 55.5601 261.511 57.8163 260.237 59.3319L253.778 58.1436Z" fill="#FCFC30"/>
<path d="M242.833 49.6694C239.767 49.6694 237.339 48.6877 235.548 46.7243C233.791 44.7609 232.913 41.833 232.913 37.9406V27.4003H227.487V21.9751H232.913V13.7598H239.009V21.9751H248.465L247.741 27.4003H239.009V37.889C239.009 41.988 240.491 44.0375 243.453 44.0375C244.245 44.0375 244.951 43.9514 245.571 43.7792C246.226 43.607 246.915 43.3486 247.638 43.0042L249.136 47.861C248.31 48.4466 247.345 48.8944 246.243 49.2044C245.141 49.5144 244.004 49.6694 242.833 49.6694Z" fill="#FCFC30"/>
<path d="M224.654 49.2564H218.609V21.9754H224.654V49.2564ZM221.657 18.1519C220.555 18.1519 219.642 17.7902 218.919 17.0669C218.196 16.3435 217.834 15.4479 217.834 14.3801C217.834 13.3123 218.196 12.4167 218.919 11.6933C219.642 10.9355 220.555 10.5566 221.657 10.5566C222.76 10.5566 223.673 10.9183 224.396 11.6417C225.119 12.3306 225.481 13.209 225.481 14.2768C225.481 15.379 225.119 16.3091 224.396 17.0669C223.707 17.7902 222.794 18.1519 221.657 18.1519Z" fill="#FCFC30"/>
<path d="M211.293 49.6694C208.434 49.6694 206.247 48.791 204.732 47.0343C203.25 45.2431 202.51 42.6425 202.51 39.2323V10.5046H208.555V39.3357C208.555 40.8513 208.848 42.0225 209.433 42.8491C210.019 43.6414 210.828 44.0375 211.862 44.0375C212.482 44.0375 213.016 43.9859 213.464 43.8825C213.911 43.7447 214.394 43.5381 214.91 43.2625L216.512 48.2227C214.962 49.1872 213.222 49.6694 211.293 49.6694Z" fill="#FCFC30"/>
<path d="M197.402 49.2564H191.357V21.9754H197.402V49.2564ZM194.405 18.1519C193.303 18.1519 192.39 17.7902 191.667 17.0669C190.944 16.3435 190.582 15.4479 190.582 14.3801C190.582 13.3123 190.944 12.4167 191.667 11.6933C192.39 10.9355 193.303 10.5566 194.405 10.5566C195.508 10.5566 196.421 10.9183 197.144 11.6417C197.867 12.3306 198.229 13.209 198.229 14.2768C198.229 15.379 197.867 16.3091 197.144 17.0669C196.455 17.7902 195.542 18.1519 194.405 18.1519Z" fill="#FCFC30"/>
<path d="M174.992 49.6694C173.028 49.6694 171.272 49.2388 169.722 48.3777C168.206 47.5165 167.018 46.3798 166.156 44.9676V49.2561H160.576V10.5046H166.621V25.7985C167.517 24.5585 168.705 23.5423 170.187 22.7501C171.702 21.9578 173.407 21.5617 175.302 21.5617C177.678 21.5617 179.797 22.1473 181.657 23.3184C183.551 24.4551 185.033 26.0741 186.1 28.1753C187.168 30.2765 187.702 32.6877 187.702 35.4089C187.702 38.1645 187.151 40.6274 186.049 42.7975C184.947 44.9676 183.431 46.6554 181.502 47.861C179.573 49.0666 177.403 49.6694 174.992 49.6694ZM174.32 44.1409C175.594 44.1409 176.783 43.8136 177.885 43.1592C178.987 42.4702 179.866 41.4885 180.52 40.2141C181.209 38.9051 181.554 37.3551 181.554 35.5639C181.554 33.7727 181.209 32.2399 180.52 30.9654C179.866 29.6909 178.987 28.7264 177.885 28.0719C176.783 27.4175 175.594 27.0902 174.32 27.0902C172.047 27.0902 170.187 27.8136 168.74 29.2603C167.328 30.6726 166.621 32.636 166.621 35.1505V36.0289C166.621 38.5434 167.328 40.5241 168.74 41.9708C170.187 43.4175 172.047 44.1409 174.32 44.1409Z" fill="#FCFC30"/>
<path d="M155.419 49.2564H149.374V21.9754H155.419V49.2564ZM152.422 18.1519C151.32 18.1519 150.407 17.7902 149.684 17.0669C148.96 16.3435 148.599 15.4479 148.599 14.3801C148.599 13.3123 148.96 12.4167 149.684 11.6933C150.407 10.9355 151.32 10.5566 152.422 10.5566C153.524 10.5566 154.437 10.9183 155.161 11.6417C155.884 12.3306 156.246 13.209 156.246 14.2768C156.246 15.379 155.884 16.3091 155.161 17.0669C154.472 17.7902 153.559 18.1519 152.422 18.1519Z" fill="#FCFC30"/>
<path d="M135.333 49.6695C133.61 49.6695 131.802 49.4111 129.907 48.8944C128.047 48.3433 126.566 47.7233 125.464 47.0344L126.962 42.1258C128.065 42.7459 129.391 43.2798 130.941 43.7276C132.525 44.1754 134.093 44.3993 135.643 44.3993C136.952 44.3993 137.968 44.1926 138.691 43.7792C139.449 43.3659 139.828 42.7286 139.828 41.8675C139.828 40.9375 139.397 40.2141 138.536 39.6974C137.675 39.1463 136.211 38.509 134.144 37.7857C131.595 36.8901 129.701 35.8223 128.461 34.5822C127.221 33.3422 126.601 31.6716 126.601 29.5704C126.601 27.917 127.048 26.4875 127.944 25.2819C128.84 24.0763 130.028 23.1635 131.509 22.5435C133.025 21.889 134.678 21.5618 136.469 21.5618C137.985 21.5618 139.483 21.7857 140.964 22.2335C142.48 22.6468 143.789 23.2324 144.891 23.9902L143.341 28.692C141.137 27.4175 138.88 26.7803 136.573 26.7803C135.367 26.7803 134.368 27.0042 133.576 27.452C132.818 27.8653 132.439 28.5198 132.439 29.4154C132.439 30.2076 132.784 30.8449 133.472 31.3271C134.196 31.7749 135.35 32.2916 136.934 32.8772C139.035 33.6694 140.689 34.4445 141.894 35.2023C143.135 35.9256 144.082 36.804 144.736 37.8374C145.391 38.8707 145.718 40.1624 145.718 41.7125C145.718 44.227 144.771 46.1904 142.876 47.6027C140.982 48.9805 138.467 49.6695 135.333 49.6695Z" fill="#FCFC30"/>
<path d="M113.685 49.6695C111.963 49.6695 110.154 49.4111 108.26 48.8944C106.4 48.3433 104.919 47.7233 103.816 47.0344L105.315 42.1258C106.417 42.7459 107.743 43.2798 109.293 43.7276C110.878 44.1754 112.445 44.3993 113.995 44.3993C115.304 44.3993 116.32 44.1926 117.044 43.7792C117.801 43.3659 118.18 42.7286 118.18 41.8675C118.18 40.9375 117.75 40.2141 116.889 39.6974C116.027 39.1463 114.563 38.509 112.497 37.7857C109.948 36.8901 108.053 35.8223 106.813 34.5822C105.573 33.3422 104.953 31.6716 104.953 29.5704C104.953 27.917 105.401 26.4875 106.296 25.2819C107.192 24.0763 108.38 23.1635 109.862 22.5435C111.377 21.889 113.031 21.5618 114.822 21.5618C116.337 21.5618 117.836 21.7857 119.317 22.2335C120.833 22.6468 122.142 23.2324 123.244 23.9902L121.694 28.692C119.489 27.4175 117.233 26.7803 114.925 26.7803C113.72 26.7803 112.721 27.0042 111.928 27.452C111.171 27.8653 110.792 28.5198 110.792 29.4154C110.792 30.2076 111.136 30.8449 111.825 31.3271C112.548 31.7749 113.702 32.2916 115.287 32.8772C117.388 33.6694 119.041 34.4445 120.247 35.2023C121.487 35.9256 122.434 36.804 123.089 37.8374C123.743 38.8707 124.07 40.1624 124.07 41.7125C124.07 44.227 123.123 46.1904 121.229 47.6027C119.334 48.9805 116.82 49.6695 113.685 49.6695Z" fill="#FCFC30"/>
<path d="M92.0228 44.1926C93.5039 44.1926 94.8645 44.0376 96.1046 43.7276C97.3791 43.3831 98.6364 42.8837 99.8764 42.2292L101.065 47.3444C99.5836 48.2055 98.1197 48.8083 96.673 49.1528C95.2262 49.4972 93.5384 49.6695 91.6094 49.6695C89.2327 49.6695 87.0454 49.0839 85.0475 47.9127C83.0841 46.7071 81.5168 45.071 80.3457 43.0042C79.209 40.9375 78.6406 38.6296 78.6406 36.0806C78.6406 33.2561 79.2779 30.7415 80.5524 28.537C81.8269 26.3325 83.5319 24.6274 85.6675 23.4218C87.8376 22.1818 90.1972 21.5618 92.7461 21.5618C94.5373 21.5618 96.1563 21.889 97.603 22.5435C99.0841 23.1979 100.255 24.1107 101.116 25.2819C101.978 26.4531 102.408 27.7964 102.408 29.312C102.408 31.2066 101.926 32.7911 100.961 34.0656C100.031 35.3056 98.3263 36.4079 95.8463 37.3723C93.4006 38.3024 89.8699 39.1291 85.2542 39.8524C85.8742 41.1958 86.7526 42.2636 87.8893 43.0559C89.0604 43.8137 90.4383 44.1926 92.0228 44.1926ZM92.6428 26.6253C90.3005 26.6253 88.3371 27.4175 86.7526 29.002C85.2025 30.5521 84.4103 32.6533 84.3758 35.3056C87.4759 34.7545 89.8871 34.2378 91.6094 33.7555C93.3317 33.2389 94.5718 32.6705 95.3296 32.0505C96.1218 31.396 96.5179 30.6038 96.5179 29.6737C96.5179 28.7437 96.1563 28.0031 95.4329 27.452C94.744 26.9008 93.814 26.6253 92.6428 26.6253Z" fill="#FCFC30"/>
<path d="M69.7726 49.6695C67.2236 49.6695 64.9158 49.0839 62.849 47.9127C60.8167 46.7071 59.215 45.0365 58.0438 42.9009C56.8727 40.7308 56.2871 38.2679 56.2871 35.5123C56.2871 32.8944 56.8899 30.5176 58.0955 28.382C59.3356 26.2464 61.0062 24.5758 63.1074 23.3702C65.2085 22.1646 67.4992 21.5618 69.9793 21.5618C71.4604 21.5618 72.7866 21.734 73.9578 22.0785C75.1634 22.3885 76.3689 22.9051 77.5745 23.6285L76.0762 28.692C74.3883 27.6587 72.4594 27.142 70.2893 27.142C68.0159 27.142 66.1386 27.917 64.6574 29.4671C63.1762 30.9827 62.4357 32.9977 62.4357 35.5123C62.4357 37.2346 62.7629 38.7502 63.4174 40.0591C64.1063 41.368 65.0363 42.367 66.2075 43.0559C67.3786 43.7448 68.6876 44.0893 70.1343 44.0893C71.3743 44.0893 72.4766 43.9342 73.4411 43.6242C74.4056 43.3142 75.3528 42.8836 76.2828 42.3325L77.8329 47.396C76.5928 48.1538 75.3528 48.7222 74.1128 49.1011C72.8727 49.48 71.426 49.6695 69.7726 49.6695Z" fill="#FCFC30"/>
<path d="M47.4181 49.6695C44.8691 49.6695 42.5613 49.0839 40.4945 47.9127C38.4622 46.7071 36.8605 45.0365 35.6893 42.9009C34.5182 40.7308 33.9326 38.2679 33.9326 35.5123C33.9326 32.8944 34.5354 30.5176 35.741 28.382C36.9811 26.2464 38.6517 24.5758 40.7529 23.3702C42.8541 22.1646 45.1447 21.5618 47.6248 21.5618C49.1059 21.5618 50.4321 21.734 51.6033 22.0785C52.8089 22.3885 54.0145 22.9051 55.2201 23.6285L53.7217 28.692C52.0338 27.6587 50.1049 27.142 47.9348 27.142C45.6614 27.142 43.7841 27.917 42.3029 29.4671C40.8218 30.9827 40.0812 32.9977 40.0812 35.5123C40.0812 37.2346 40.4084 38.7502 41.0629 40.0591C41.7518 41.368 42.6818 42.367 43.853 43.0559C45.0241 43.7448 46.3331 44.0893 47.7798 44.0893C49.0198 44.0893 50.1221 43.9342 51.0866 43.6242C52.0511 43.3142 52.9983 42.8836 53.9283 42.3325L55.4784 47.396C54.2384 48.1538 52.9983 48.7222 51.7583 49.1011C50.5182 49.48 49.0715 49.6695 47.4181 49.6695Z" fill="#FCFC30"/>
<path d="M6.45857 49.2562H0L13.5888 13.2949H20.7708L34.4113 49.2562H27.6943L24.5942 40.5759H9.55868L6.45857 49.2562ZM16.999 19.4435L11.3154 35.4091H22.7342L16.999 19.4435Z" fill="#FCFC30"/>
</svg>
