<?xml version="1.0" encoding="UTF-8" standalone="no"?>
<svg
   xml:space="preserve"
   width="60"
   height="22.5"
   version="1.1"
   style="clip-rule:evenodd;fill-rule:evenodd;image-rendering:optimizeQuality;shape-rendering:geometricPrecision;text-rendering:geometricPrecision"
   viewBox="0 0 12151.22 4558.6145"
   id="svg94"
   sodipodi:docname="logo_WAT.svg"
   inkscape:version="1.1.2 (0a00cf5339, 2022-02-04)"
   xmlns:inkscape="http://www.inkscape.org/namespaces/inkscape"
   xmlns:sodipodi="http://sodipodi.sourceforge.net/DTD/sodipodi-0.dtd"
   xmlns="http://www.w3.org/2000/svg"
   xmlns:svg="http://www.w3.org/2000/svg"><sodipodi:namedview
   id="namedview96"
   pagecolor="#ffffff"
   bordercolor="#666666"
   borderopacity="1.0"
   inkscape:pageshadow="2"
   inkscape:pageopacity="0.0"
   inkscape:pagecheckerboard="0"
   showgrid="false"
   inkscape:zoom="25.966667"
   inkscape:cx="29.980745"
   inkscape:cy="13.748395"
   inkscape:window-width="2560"
   inkscape:window-height="1043"
   inkscape:window-x="3840"
   inkscape:window-y="0"
   inkscape:window-maximized="1"
   inkscape:current-layer="__x0023_Layer_x0020_1" />
 <defs
   id="defs28">
  <style
   type="text/css"
   id="style2">
   <![CDATA[
    .fil0 {fill:#C8CACC;fill-rule:nonzero}
    .fil5 {fill:#A9ABAE;fill-rule:nonzero}
    .fil8 {fill:#737476;fill-rule:nonzero}
    .fil7 {fill:#22984F;fill-rule:nonzero}
    .fil6 {fill:#317ABE;fill-rule:nonzero}
    .fil2 {fill:url(#id0);fill-rule:nonzero}
    .fil4 {fill:url(#id1);fill-rule:nonzero}
    .fil1 {fill:url(#id2);fill-rule:nonzero}
    .fil3 {fill:url(#id3);fill-rule:nonzero}
   ]]>
  </style>
  <linearGradient
   id="id0"
   gradientUnits="userSpaceOnUse"
   x1="5778.0498"
   y1="631.09003"
   x2="4616.6099"
   y2="2776.8701">
   <stop
   offset="0"
   style="stop-opacity:1; stop-color:#C3C3C4"
   id="stop4" />
   <stop
   offset="1"
   style="stop-opacity:1; stop-color:#D7D7D7"
   id="stop6" />
  </linearGradient>
  <linearGradient
   id="id1"
   gradientUnits="userSpaceOnUse"
   x1="7936.77"
   y1="1387.2"
   x2="9164.9502"
   y2="969.08002">
   <stop
   offset="0"
   style="stop-opacity:1; stop-color:#C8CACC"
   id="stop9" />
   <stop
   offset="0.560784"
   style="stop-opacity:1; stop-color:#AEB0B3"
   id="stop11" />
   <stop
   offset="1"
   style="stop-opacity:1; stop-color:#949699"
   id="stop13" />
  </linearGradient>
  <linearGradient
   id="id2"
   gradientUnits="userSpaceOnUse"
   x1="3210.8301"
   y1="2184.3201"
   x2="2824.1499"
   y2="2763.98">
   <stop
   offset="0"
   style="stop-opacity:1; stop-color:#C8CACC"
   id="stop16" />
   <stop
   offset="1"
   style="stop-opacity:1; stop-color:#737476"
   id="stop18" />
  </linearGradient>
  <linearGradient
   id="id3"
   gradientUnits="userSpaceOnUse"
   x1="7631.29"
   y1="3597.1101"
   x2="8567.3301"
   y2="1339.33">
   <stop
   offset="0"
   style="stop-opacity:1; stop-color:#C8CACC"
   id="stop21" />
   <stop
   offset="0.560784"
   style="stop-opacity:1; stop-color:#B1B3B5"
   id="stop23" />
   <stop
   offset="1"
   style="stop-opacity:1; stop-color:#999B9E"
   id="stop25" />
  </linearGradient>
 </defs>
 <g
   id="__x0023_Layer_x0020_1"
   inkscape:label="__x0023_Layer 1"
   inkscape:groupmode="layer">
  <metadata
   id="CorelCorpID_0Corel-Layer" />
  <g
   id="g131"
   transform="matrix(1.1634357,0,0,1.1727441,-992.97436,-951.82868)"><g
     id="_2602288063024">
   <path
   class="fil0"
   d="m 3177.92,2046.68 c -347.33,484.64 -616.77,168.85 -692.58,88.04 -424.14,-500.31 -563.36,-681.61 -987.48,-1182.15 -289.53,-341.03 -857.61,66.7 -565.23,411.45 630.49,743.66 975.97,1168.18 1606.58,1911.71 173.11,204.29 445.96,140.01 574.64,-18.09 9.21,-9.89 18,-20.74 25.89,-32.59 148.22,-224.02 296.22,-448.04 444.33,-672.16 z"
   id="path31" />
  </g><path
     class="fil1"
     d="m 2485.34,2135.05 c -11.53,-13.71 -22.94,-27.25 -34.45,-40.81 0.43,2.04 0.65,4.22 1.2,6.58 0,0 521.89,800.61 1131.98,452.17 l -406.15,-506.13 c -347.33,484.79 -616.77,168.77 -692.58,88.19 z"
     id="path34"
     style="fill:url(#id2)" /><path
     class="fil0"
     d="m 5612.68,929.2 c -357.33,427.69 -649.15,800.81 -1006.47,1228.62 -68.01,62.53 -160.06,101.38 -260.1,101.38 -124.53,0 -237.2,-59.92 -305.88,-151.02 -370.48,-537.85 -287.76,-418.42 -658.47,-956.1 -253.75,-368.52 -859.9,-19.54 -603.29,352.71 553.26,802.9 653.2,948.64 1206.57,1751.2 140.54,204.05 388.71,187.82 538.9,70 22.05,-16.22 43.32,-35.86 63.74,-60.11 528.13,-632.41 991,-1210.26 1519.23,-1842.5 286.9,-343.27 -204.93,-840.48 -494.23,-494.18 z"
     id="path36" /><path
     class="fil0"
     d="M 8974.67,2833.08 C 8446.67,2200.77 7918.19,1568.52 7389.96,936.28 7318.3,850.27 7233.82,816.37 7152.11,819.21 c -0.34,0 -0.66,0 -1.1,0 -0.11,0 -0.56,0 -0.9,0 -81.82,-2.84 -166.09,31.06 -237.95,117.07 -528.34,632.24 -1056.59,1264.49 -1584.72,1896.8 -286.79,343.26 204.93,840.35 494.13,494.22 371.8,-444.96 743.6,-890.22 1115.49,-1335.08 58.16,-46.08 131.99,-74 212.64,-74 84.88,0 162.23,30.55 221.48,81.08 369.73,442.73 739.66,885.21 1109.39,1328 289.39,346.13 781,-150.96 494.1,-494.22 z"
     id="path38" /><path
     class="fil0"
     d="m 10954.6,824.48 c -1125.07,-1.42 -2130,-2.85 -3254.96,-4.22 L 8284.31,1535 c 246.49,0.45 871.16,0.72 1117.79,1 -1.31,532.13 -2.52,1014.03 -3.62,1564.44 -1.31,460.34 712.66,460.34 713.76,0 1.2,-550.14 2.65,-1031.86 3.86,-1563.61 445.62,0.65 392.84,1.08 838.5,1.68 460.54,0.61 460.33,-713.32 0,-714.03 z"
     id="path40" /><path
     class="fil2"
     d="m 5612.68,928.92 c -357.33,427.92 -649.15,800.99 -1006.47,1228.63 -68.01,62.65 -160.06,101.47 -260.1,101.47 -124.53,0 -237.2,-59.84 -305.88,-151.12 -12.95,-19.08 -26.11,-38.12 -39.39,-57.2 0.55,0.88 39.17,56.1 39.39,57.2 0,0 370.16,717.32 1035.75,574.01 371.82,-444.76 659.14,-813.77 1030.93,-1258.64 286.9,-343.28 -204.93,-840.53 -494.23,-494.35 z"
     id="path42"
     style="fill:url(#id0)" /><path
     class="fil3"
     d="m 7371.18,1999.3 c 369.73,442.73 739.66,885.21 1109.39,1328 289.39,346.13 781,-150.96 494.1,-494.22 -219.18,-262.31 -438.39,-524.84 -657.57,-787.16 l -17.67,-11.85 c -706.87,-771.08 -1362.37,-41.85 -1362.37,-41.85 58.16,-46.08 131.99,-74 212.64,-74 84.88,0 162.23,30.55 221.48,81.08 z"
     id="path44"
     style="fill:url(#id3)" /><path
     class="fil4"
     d="m 8284.31,1535 c 246.49,0.45 871.16,0.72 1117.79,1 0,0 -394.4,-532.85 -873.92,-714.58 -271.09,-0.28 -546.15,-0.72 -828.54,-1.16 z"
     id="path46"
     style="fill:url(#id1)" /><g
     id="_2602288057120">
   <path
   class="fil5"
   d="m 4343.3,4568.88 c -43.57,0 -81.21,-7.51 -112.93,-22.6 -31.73,-15.02 -57.79,-35.83 -78.23,-62.5 -20.44,-26.59 -35.63,-58.08 -45.57,-94.32 -9.96,-36.31 -14.92,-75.93 -14.92,-119 0,-42.99 4.96,-82.95 14.92,-119.75 9.94,-36.86 25.13,-68.69 45.57,-95.56 20.44,-26.88 46.5,-47.89 78.23,-62.91 31.72,-15.09 69.36,-22.6 112.93,-22.6 43.54,0 81.18,7.51 112.91,22.6 31.71,15.02 57.79,36.03 78.24,62.91 20.41,26.87 35.6,58.7 45.56,95.56 9.94,36.8 14.92,76.76 14.92,119.75 0,43.07 -4.98,82.69 -14.92,119 -9.96,36.24 -25.15,67.73 -45.56,94.32 -20.45,26.67 -46.53,47.48 -78.24,62.5 -31.73,15.09 -69.37,22.6 -112.91,22.6 z m 0,-98.39 v 0 c 83.33,0 125,-66.63 125,-200.03 0,-66.62 -10.07,-116.65 -30.25,-149.99 -20.15,-33.35 -51.48,-50.03 -93.96,-50.03 -84.42,0 -126.63,66.7 -126.63,200.02 0,133.4 41.95,200.03 125.84,200.03 z m 266.15,133.87 v 0 c -1.09,15.65 -2.96,31.63 -5.65,48.03 -2.69,16.4 -7,31.83 -12.9,46.37 l -200.03,-32.25 c 1.62,-11.3 2.95,-20.87 4.04,-28.66 1.06,-7.79 2.42,-15.09 4.03,-21.77 1.62,-6.76 3.49,-13.44 5.65,-20.19 2.13,-6.68 4.56,-14.06 7.27,-22.19 z"
   id="path48" />
   <path
   class="fil5"
   d="m 4669.13,4142.24 c 19.37,-3.24 38.45,-4.82 57.28,-4.82 18.81,0 37.9,1.58 57.26,4.82 v 220.97 c 0,22.05 1.74,40.24 5.24,54.43 3.49,14.26 8.86,25.56 16.13,33.9 7.25,8.34 16.26,14.26 27.01,17.78 10.75,3.44 23.4,5.23 37.92,5.23 19.88,0 36.55,-1.93 50,-5.65 v -326.66 c 19.36,-3.24 38.17,-4.82 56.47,-4.82 18.81,0 37.89,1.58 57.25,4.82 v 400.87 c -17.2,5.92 -39.92,11.64 -68.16,17.29 -28.21,5.66 -57.65,8.48 -88.31,8.48 -27.43,0 -53.76,-2.14 -79.03,-6.41 -25.29,-4.34 -47.46,-13.44 -66.54,-27.42 -19.09,-13.99 -34.28,-34.45 -45.58,-61.32 -11.29,-26.88 -16.94,-62.63 -16.94,-107.28 z"
   id="path50" />
   <path
   class="fil5"
   d="m 5329.68,4285.01 c 0,-12.89 -2.15,-23.43 -6.46,-31.49 -4.31,-8.06 -10.21,-14.34 -17.74,-18.95 -7.53,-4.55 -16.81,-7.65 -27.82,-9.23 -11.03,-1.66 -23.27,-2.49 -36.71,-2.49 -29.02,0 -59.96,5.65 -92.74,16.95 -7.55,-13.98 -13.19,-27.14 -16.95,-39.48 -3.76,-12.4 -5.63,-27.15 -5.63,-44.37 23.65,-8.06 47.3,-13.99 70.97,-17.78 23.65,-3.72 45.7,-5.65 66.14,-5.65 55.92,0 99.6,13.51 131.05,40.38 31.46,26.87 47.18,69.87 47.18,129.05 v 241.92 c -18.83,5.92 -41.66,11.57 -68.55,16.95 -26.89,5.37 -57.26,8.06 -91.14,8.06 -27.43,0 -52.56,-2.41 -75.4,-7.23 -22.88,-4.83 -42.49,-12.89 -58.89,-24.19 -16.4,-11.3 -29.03,-25.84 -37.9,-43.55 -8.87,-17.77 -13.31,-39.55 -13.31,-65.38 0,-25.77 5.51,-47.41 16.53,-64.91 11.02,-17.43 25.27,-31.42 42.75,-41.96 17.47,-10.48 36.97,-17.98 58.47,-22.53 21.5,-4.62 43.01,-6.89 64.53,-6.89 15.59,0 32.79,0.83 51.62,2.41 z m 0,83.09 v 0 c -6.46,-1.1 -13.45,-2.07 -20.98,-2.83 -7.53,-0.82 -14.25,-1.24 -20.16,-1.24 -26.35,0 -47.18,4.69 -62.5,14.13 -15.34,9.37 -22.98,24.6 -22.98,45.54 0,13.99 2.94,24.74 8.87,32.25 5.9,7.58 13.02,13.09 21.37,16.54 8.32,3.51 17.19,5.65 26.62,6.47 9.38,0.83 17.6,1.24 24.6,1.24 8.06,0 16.12,-0.69 24.18,-2.06 8.08,-1.31 15.05,-2.55 20.98,-3.59 z"
   id="path52" />
   <path
   class="fil5"
   d="m 5523.24,3969.64 c 19.36,-3.24 38.45,-4.82 57.28,-4.82 18.27,0 37.1,1.58 56.45,4.82 v 423.4 c 0,16.68 0.93,30.18 2.82,40.38 1.88,10.2 4.84,18.12 8.87,23.77 4.03,5.65 9.28,9.58 15.73,11.71 6.46,2.14 14.52,3.24 24.2,3.24 4.29,0 8.99,-0.28 14.11,-0.83 5.11,-0.55 10.09,-1.38 14.93,-2.41 5.91,22.05 8.87,43.55 8.87,64.5 0,4.34 0,8.19 0,11.71 0,3.51 -0.55,7.37 -1.62,11.71 -8.61,2.69 -18.94,4.55 -31.05,5.65 -12.1,1.04 -23.26,1.59 -33.47,1.59 -41.41,0 -74.61,-11.44 -99.6,-34.32 -25.01,-22.8 -37.52,-60.08 -37.52,-111.69 z"
   id="path54" />
   <path
   class="fil5"
   d="m 5794.23,4229.33 h -54.03 c -1.62,-6.96 -2.83,-14.4 -3.64,-22.19 -0.81,-7.78 -1.2,-15.16 -1.2,-22.18 0,-14.47 1.6,-28.73 4.84,-42.72 h 166.14 v 416.99 c -19.36,3.24 -38.19,4.83 -56.47,4.83 -17.74,0 -36.29,-1.59 -55.64,-4.83 z m -16.95,-157.23 v 0 c -3.22,-18.33 -4.84,-36.31 -4.84,-54.09 0,-17.16 1.62,-35.21 4.84,-54.02 9.15,-1.59 18.97,-2.82 29.44,-3.65 10.49,-0.76 20.04,-1.17 28.65,-1.17 9.13,0 19.07,0.41 29.83,1.17 10.75,0.83 20.69,2.06 29.84,3.65 1.62,9.16 2.68,18.12 3.23,27.01 0.52,8.89 0.82,17.91 0.82,27.01 0,8.61 -0.3,17.5 -0.82,26.67 -0.55,9.09 -1.61,18.25 -3.23,27.42 -9.15,1.58 -18.95,2.68 -29.44,3.16 -10.47,0.56 -20.29,0.83 -29.44,0.83 -8.6,0 -18.28,-0.27 -29.03,-0.83 -10.76,-0.48 -20.7,-1.58 -29.85,-3.16 z"
   id="path56" />
   <path
   class="fil5"
   d="m 6253.11,3969.64 c 9.72,-1.58 19.22,-2.69 28.66,-3.24 9.38,-0.55 18.68,-0.82 27.84,-0.82 9.1,0 18.54,0.27 28.18,0.82 9.72,0.55 19.36,1.66 29.08,3.24 v 575.88 c -25.29,7.51 -50.99,13.3 -77.04,17.3 -26.11,4.06 -57.66,6.06 -94.73,6.06 -28.55,0 -55.82,-3.86 -81.9,-11.71 -26.08,-7.79 -49.06,-20.12 -68.94,-37.07 -19.91,-16.95 -35.64,-38.86 -47.2,-65.74 -11.55,-26.87 -17.33,-59.67 -17.33,-98.39 0,-30.66 4.96,-59.53 14.92,-86.68 9.94,-27.14 24.2,-50.71 42.76,-70.62 18.53,-19.84 40.98,-35.62 67.33,-47.13 26.34,-11.58 55.66,-17.36 87.88,-17.36 9.71,0 19.77,0.41 30.24,1.17 10.54,0.83 20.6,2.62 30.25,5.31 z m 0,258.86 v 0 c -10.75,-2.68 -19.5,-4.41 -26.18,-5.23 -6.76,-0.76 -15.23,-1.17 -25.43,-1.17 -17.7,0 -33.19,3.58 -46.34,10.88 -13.2,7.24 -24.08,16.95 -32.66,29.01 -8.61,12.13 -14.94,26.39 -18.97,42.79 -4.03,16.4 -6.04,33.42 -6.04,51.19 0,22.05 2.69,40.72 8.06,56.02 5.38,15.36 12.78,27.56 22.19,36.73 9.4,9.16 20.56,15.7 33.45,19.77 12.91,4 26.88,6.06 41.97,6.06 9.09,0 17.43,-0.41 25.01,-1.24 7.51,-0.82 15.85,-2.55 24.94,-5.23 z"
   id="path58" />
   <path
   class="fil5"
   d="m 6669.35,4285.01 c 0,-12.89 -2.21,-23.43 -6.48,-31.49 -4.27,-8.06 -10.2,-14.34 -17.71,-18.95 -7.58,-4.55 -16.81,-7.65 -27.84,-9.23 -11.02,-1.66 -23.28,-2.49 -36.72,-2.49 -29,0 -59.94,5.65 -92.74,16.95 -7.51,-13.98 -13.16,-27.14 -16.95,-39.48 -3.79,-12.4 -5.65,-27.15 -5.65,-44.37 23.63,-8.06 47.34,-13.99 70.97,-17.78 23.7,-3.72 45.68,-5.65 66.14,-5.65 55.95,0 99.64,13.51 131.06,40.38 31.48,26.87 47.2,69.87 47.2,129.05 v 241.92 c -18.82,5.92 -41.69,11.57 -68.56,16.95 -26.87,5.37 -57.26,8.06 -91.16,8.06 -27.42,0 -52.57,-2.41 -75.38,-7.23 -22.87,-4.83 -42.51,-12.89 -58.91,-24.19 -16.4,-11.3 -29.01,-25.84 -37.9,-43.55 -8.88,-17.77 -13.29,-39.55 -13.29,-65.38 0,-25.77 5.51,-47.41 16.53,-64.91 11.02,-17.43 25.29,-31.42 42.72,-41.96 17.5,-10.48 37,-17.98 58.5,-22.53 21.5,-4.62 42.99,-6.89 64.56,-6.89 15.57,0 32.73,0.83 51.61,2.41 z m 0,83.09 v 0 c -6.48,-1.1 -13.44,-2.07 -21.02,-2.83 -7.51,-0.82 -14.26,-1.24 -20.12,-1.24 -26.39,0 -47.2,4.69 -62.49,14.13 -15.37,9.37 -23.01,24.6 -23.01,45.54 0,13.99 2.96,24.74 8.89,32.25 5.85,7.58 13.02,13.09 21.35,16.54 8.34,3.51 17.23,5.65 26.6,6.47 9.44,0.83 17.64,1.24 24.6,1.24 8.06,0 16.12,-0.69 24.18,-2.06 8.06,-1.31 15.09,-2.55 21.02,-3.59 z"
   id="path60" />
   <path
   class="fil5"
   d="m 7116.11,3969.64 c 9.65,-1.58 19.22,-2.69 28.59,-3.24 9.44,-0.55 18.74,-0.82 27.84,-0.82 9.16,0 18.6,0.27 28.25,0.82 9.64,0.55 19.36,1.66 29.01,3.24 v 575.88 c -25.29,7.51 -50.92,13.3 -76.97,17.3 -26.11,4.06 -57.67,6.06 -94.81,6.06 -28.52,0 -55.81,-3.86 -81.85,-11.71 -26.12,-7.79 -49.06,-20.12 -68.97,-37.07 -19.92,-16.95 -35.62,-38.86 -47.2,-65.74 -11.58,-26.87 -17.3,-59.67 -17.3,-98.39 0,-30.66 4.96,-59.53 14.89,-86.68 9.99,-27.14 24.18,-50.71 42.79,-70.62 18.53,-19.84 40.99,-35.62 67.31,-47.13 26.32,-11.58 55.67,-17.36 87.92,-17.36 9.65,0 19.78,0.41 30.25,1.17 10.47,0.83 20.53,2.62 30.25,5.31 z m 0,258.86 v 0 c -10.75,-2.68 -19.5,-4.41 -26.25,-5.23 -6.69,-0.76 -15.16,-1.17 -25.36,-1.17 -17.78,0 -33.21,3.58 -46.37,10.88 -13.23,7.24 -24.12,16.95 -32.66,29.01 -8.61,12.13 -14.95,26.39 -19.02,42.79 -4,16.4 -5.99,33.42 -5.99,51.19 0,22.05 2.69,40.72 8.06,56.02 5.37,15.36 12.75,27.56 22.18,36.73 9.38,9.16 20.54,15.7 33.42,19.77 12.96,4 26.94,6.06 41.96,6.06 9.17,0 17.5,-0.41 25.01,-1.24 7.52,-0.82 15.85,-2.55 25.02,-5.23 z"
   id="path62" />
   <path
   class="fil5"
   d="m 7415.35,4385.81 c 2.13,32.24 13.43,55.67 33.9,70.14 20.39,14.54 47.26,21.77 80.61,21.77 18.26,0 37,-1.72 56.09,-5.23 19.09,-3.45 37.21,-8.48 54.43,-14.89 5.93,10.75 11.02,23.64 15.3,38.73 4.34,15.02 6.75,31.14 7.3,48.37 -41.96,16.12 -89.3,24.18 -142,24.18 -38.73,0 -71.87,-5.37 -99.57,-16.12 -27.7,-10.75 -50.3,-25.64 -67.8,-44.79 -17.43,-19.02 -30.38,-41.75 -38.65,-68.14 -8.41,-26.33 -12.54,-55.13 -12.54,-86.27 0,-30.66 4.27,-59.39 12.88,-86.33 8.61,-26.88 21.43,-50.23 38.31,-70.14 16.95,-19.92 37.97,-35.63 62.91,-47.2 25.01,-11.58 54.23,-17.37 87.58,-17.37 29,0 54.77,5.17 77.37,15.37 22.6,10.2 41.83,24.18 57.67,41.96 15.85,17.71 27.84,38.79 35.9,63.25 8.06,24.53 12.13,50.72 12.13,78.69 0,10.2 -0.42,20.25 -1.24,30.25 -0.83,9.92 -1.73,17.84 -2.83,23.77 z m 163.71,-79.86 v 0 c -1.1,-25.77 -8.2,-46.65 -21.36,-62.49 -13.16,-15.85 -31.63,-23.78 -55.26,-23.78 -26.87,0 -47.34,7.52 -61.32,22.54 -13.99,15.09 -22.26,36.31 -24.94,63.73 z"
   id="path64" />
   <path
   class="fil5"
   d="m 8130.76,4285.01 c 0,-12.89 -2.21,-23.43 -6.48,-31.49 -4.27,-8.06 -10.2,-14.34 -17.71,-18.95 -7.58,-4.55 -16.81,-7.65 -27.84,-9.23 -11.02,-1.66 -23.28,-2.49 -36.72,-2.49 -29.01,0 -59.94,5.65 -92.74,16.95 -7.51,-13.98 -13.16,-27.14 -16.95,-39.48 -3.79,-12.4 -5.65,-27.15 -5.65,-44.37 23.63,-8.06 47.34,-13.99 70.97,-17.78 23.7,-3.72 45.68,-5.65 66.14,-5.65 55.95,0 99.64,13.51 131.05,40.38 31.49,26.87 47.2,69.87 47.2,129.05 v 241.92 c -18.81,5.92 -41.68,11.57 -68.55,16.95 -26.87,5.37 -57.26,8.06 -91.16,8.06 -27.43,0 -52.57,-2.41 -75.38,-7.23 -22.88,-4.83 -42.51,-12.89 -58.91,-24.19 -16.4,-11.3 -29.01,-25.84 -37.9,-43.55 -8.88,-17.77 -13.29,-39.55 -13.29,-65.38 0,-25.77 5.51,-47.41 16.53,-64.91 11.02,-17.43 25.29,-31.42 42.72,-41.96 17.5,-10.48 37,-17.98 58.5,-22.53 21.49,-4.62 42.99,-6.89 64.56,-6.89 15.57,0 32.73,0.83 51.61,2.41 z m 0,83.09 v 0 c -6.48,-1.1 -13.44,-2.07 -21.02,-2.83 -7.51,-0.82 -14.26,-1.24 -20.12,-1.24 -26.39,0 -47.2,4.69 -62.49,14.13 -15.37,9.37 -23.01,24.6 -23.01,45.54 0,13.99 2.96,24.74 8.88,32.25 5.86,7.58 13.03,13.09 21.36,16.54 8.34,3.51 17.23,5.65 26.6,6.47 9.44,0.83 17.64,1.24 24.6,1.24 8.06,0 16.12,-0.69 24.18,-2.06 8.06,-1.31 15.09,-2.55 21.02,-3.59 z"
   id="path66" />
   <path
   class="fil5"
   d="m 8607.42,4460.84 c 6.41,10.75 11.78,23.22 16.12,37.48 4.28,14.27 6.41,31.08 6.41,50.44 -21.49,8.54 -41.68,14.06 -60.49,16.54 -18.81,2.41 -38.45,3.58 -58.85,3.58 -35,0 -65.31,-5.51 -91.16,-16.54 -25.76,-11.02 -47.19,-26.18 -64.14,-45.54 -16.88,-19.36 -29.7,-42.38 -38.31,-68.97 -8.55,-26.6 -12.89,-55.54 -12.89,-86.68 0,-30.66 4.21,-59.19 12.55,-85.51 8.33,-26.32 20.94,-49.47 37.89,-69.38 16.95,-19.85 38.03,-35.49 63.32,-46.78 25.22,-11.31 54.57,-16.96 87.92,-16.96 11.78,0 22.67,0.28 32.66,0.83 9.92,0.55 19.43,1.65 28.59,3.24 9.17,1.58 18.26,3.79 27.43,6.48 9.16,2.68 19.36,6.13 30.66,10.47 0,12.33 -1.59,26.18 -4.82,41.55 -3.24,15.29 -8.34,29.97 -15.37,43.96 -16.12,-5.38 -30.25,-9.03 -42.31,-10.89 -12.12,-1.93 -25.97,-2.82 -41.54,-2.82 -33.35,0 -58.5,10.88 -75.38,32.65 -16.95,21.78 -25.43,52.78 -25.43,93.16 0,43.54 9.1,75.24 27.43,95.15 18.25,19.92 42.99,29.84 74.2,29.84 8.06,0 15.44,-0.14 22.19,-0.42 6.68,-0.27 13.3,-0.89 19.7,-1.99 6.48,-1.11 13.1,-2.69 19.78,-4.83 6.75,-2.13 14.68,-4.89 23.84,-8.06 z"
   id="path68" />
   <path
   class="fil5"
   d="m 8773.47,4385.81 c 2.14,32.24 13.44,55.67 33.9,70.14 20.47,14.54 47.34,21.77 80.69,21.77 18.26,0 36.93,-1.72 56.01,-5.23 19.09,-3.45 37.21,-8.48 54.44,-14.89 5.92,10.75 11.02,23.64 15.36,38.73 4.27,15.02 6.69,31.14 7.24,48.37 -41.96,16.12 -89.23,24.18 -141.94,24.18 -38.72,0 -71.93,-5.37 -99.63,-16.12 -27.7,-10.75 -50.3,-25.64 -67.73,-44.79 -17.51,-19.02 -30.39,-41.75 -38.73,-68.14 -8.33,-26.33 -12.47,-55.13 -12.47,-86.27 0,-30.66 4.28,-59.39 12.89,-86.33 8.61,-26.88 21.36,-50.23 38.31,-70.14 16.95,-19.92 37.89,-35.63 62.9,-47.2 25.01,-11.58 54.16,-17.37 87.51,-17.37 29.01,0 54.85,5.17 77.44,15.37 22.6,10.2 41.76,24.18 57.68,41.96 15.84,17.71 27.83,38.79 35.9,63.25 8.06,24.53 12.05,50.72 12.05,78.69 0,10.2 -0.41,20.25 -1.17,30.25 -0.83,9.92 -1.79,17.84 -2.82,23.77 z m 163.78,-79.86 v 0 c -1.1,-25.77 -8.2,-46.65 -21.43,-62.49 -13.16,-15.85 -31.55,-23.78 -55.19,-23.78 -26.94,0 -47.33,7.52 -61.32,22.54 -13.99,15.09 -22.32,36.31 -25.01,63.73 z"
   id="path70" />
   <path
   class="fil5"
   d="m 9200.18,4377.75 c -30.11,-8.62 -53.67,-21.36 -70.62,-38.31 -16.88,-16.95 -25.36,-42.38 -25.36,-76.21 0,-40.86 14.61,-72.9 43.96,-95.98 29.29,-23.15 69.18,-34.73 119.75,-34.73 20.95,0 41.69,1.93 62.09,5.65 20.46,3.79 41.13,9.44 62.14,16.95 -1.1,13.99 -3.78,28.53 -8.06,43.55 -4.34,15.09 -9.44,28.25 -15.36,39.55 -12.89,-5.38 -27.15,-10.06 -42.72,-14.13 -15.64,-3.99 -32.04,-6.06 -49.2,-6.06 -18.33,0 -32.59,2.83 -42.79,8.48 -10.19,5.65 -15.29,14.67 -15.29,27.01 0,11.85 3.65,20.18 10.89,25.01 7.23,4.82 17.56,9.44 31.07,13.71 l 45.96,13.71 c 15.02,4.34 28.59,9.58 40.72,15.71 12.12,6.2 22.46,13.85 31.07,23.01 8.55,9.17 15.3,20.47 20.12,33.9 4.89,13.44 7.31,29.84 7.31,49.2 0,19.91 -4.21,38.45 -12.54,55.6 -8.34,17.23 -20.4,32.18 -36.32,44.79 -15.84,12.68 -35.07,22.6 -57.6,29.83 -22.6,7.31 -48.16,10.89 -76.68,10.89 -12.89,0 -24.74,-0.41 -35.49,-1.17 -10.75,-0.83 -21.09,-2.21 -31.01,-4.07 -9.99,-1.86 -19.77,-4.13 -29.48,-6.82 -9.65,-2.68 -20.13,-6.2 -31.43,-10.54 1.11,-14.47 3.65,-29.15 7.65,-43.89 4.07,-14.82 9.3,-29.22 15.71,-43.2 17.78,7.03 34.59,12.26 50.44,15.78 15.84,3.44 32.38,5.23 49.61,5.23 7.51,0 15.71,-0.69 24.59,-2.06 8.89,-1.31 17.09,-3.72 24.6,-7.24 7.51,-3.51 13.85,-8.06 18.95,-13.71 5.1,-5.65 7.65,-13.02 7.65,-22.19 0,-12.88 -3.86,-22.18 -11.65,-27.83 -7.85,-5.65 -18.74,-10.61 -32.72,-14.89 z"
   id="path72" />
   <path
   class="fil5"
   d="m 9537.32,4377.75 c -30.11,-8.62 -53.68,-21.36 -70.62,-38.31 -16.88,-16.95 -25.36,-42.38 -25.36,-76.21 0,-40.86 14.61,-72.9 43.96,-95.98 29.28,-23.15 69.18,-34.73 119.75,-34.73 20.95,0 41.69,1.93 62.08,5.65 20.47,3.79 41.13,9.44 62.15,16.95 -1.1,13.99 -3.79,28.53 -8.06,43.55 -4.34,15.09 -9.44,28.25 -15.36,39.55 -12.89,-5.38 -27.15,-10.06 -42.73,-14.13 -15.63,-3.99 -32.04,-6.06 -49.19,-6.06 -18.33,0 -32.59,2.83 -42.79,8.48 -10.19,5.65 -15.3,14.67 -15.3,27.01 0,11.85 3.66,20.18 10.89,25.01 7.24,4.82 17.57,9.44 31.08,13.71 l 45.95,13.71 c 15.02,4.34 28.6,9.58 40.72,15.71 12.13,6.2 22.47,13.85 31.08,23.01 8.55,9.17 15.3,20.47 20.12,33.9 4.89,13.44 7.3,29.84 7.3,49.2 0,19.91 -4.2,38.45 -12.54,55.6 -8.34,17.23 -20.39,32.18 -36.31,44.79 -15.85,12.68 -35.07,22.6 -57.6,29.83 -22.6,7.31 -48.16,10.89 -76.69,10.89 -12.88,0 -24.74,-0.41 -35.48,-1.17 -10.75,-0.83 -21.09,-2.21 -31.01,-4.07 -9.99,-1.86 -19.77,-4.13 -29.49,-6.82 -9.64,-2.68 -20.12,-6.2 -31.42,-10.54 1.1,-14.47 3.65,-29.15 7.65,-43.89 4.06,-14.82 9.3,-29.22 15.71,-43.2 17.78,7.03 34.59,12.26 50.44,15.78 15.84,3.44 32.38,5.23 49.6,5.23 7.51,0 15.71,-0.69 24.6,-2.06 8.89,-1.31 17.09,-3.72 24.6,-7.24 7.51,-3.51 13.85,-8.06 18.95,-13.71 5.1,-5.65 7.65,-13.02 7.65,-22.19 0,-12.88 -3.86,-22.18 -11.65,-27.83 -7.85,-5.65 -18.74,-10.61 -32.73,-14.89 z"
   id="path74" />
   <path
   class="fil5"
   d="m 9834.08,4229.33 h -54.02 c -1.58,-6.96 -2.82,-14.4 -3.65,-22.19 -0.76,-7.78 -1.17,-15.16 -1.17,-22.18 0,-14.47 1.58,-28.73 4.82,-42.72 h 166.13 v 416.99 c -19.3,3.24 -38.18,4.83 -56.44,4.83 -17.7,0 -36.31,-1.59 -55.67,-4.83 z m 48.44,-250.05 v 0 c 21.5,-3.16 45.68,-4.82 72.55,-4.82 13.99,0 25.98,0.41 35.9,1.24 9.92,0.76 20.33,2 31.08,3.58 l -121.82,99.22 c -6.96,1.11 -15.3,2.14 -25.01,3.24 -9.65,1.11 -19.85,1.59 -30.6,1.59 -17.22,0 -34.72,-1.59 -52.43,-4.83 z"
   id="path76" />
   <path
   class="fil5"
   d="m 9990.56,4143.07 c 12.88,-2.69 24.87,-4.34 35.9,-4.9 11.02,-0.48 20.53,-0.75 28.59,-0.75 10.75,0 21.5,0.27 32.25,0.75 10.75,0.56 20.74,1.93 29.9,4.07 l 91.09,310.54 89.57,-310.54 c 9.09,-1.58 18.81,-2.83 29.01,-3.65 10.2,-0.76 20.46,-1.17 30.66,-1.17 8.06,0 17.36,0.27 27.84,0.75 10.47,0.56 22.39,2.21 35.89,4.9 l -158.13,416.16 c -10.19,1.59 -20.94,2.69 -32.24,3.24 -11.3,0.49 -20.68,0.76 -28.25,0.76 -8.06,0 -17.16,-0.27 -27.42,-0.76 -10.2,-0.55 -19.85,-1.93 -29.01,-4.06 z"
   id="path78" />
   <path
   class="fil5"
   d="m 10540.6,4385.81 c 2.14,32.24 13.44,55.67 33.9,70.14 20.46,14.54 47.34,21.77 80.68,21.77 18.26,0 36.94,-1.72 56.02,-5.23 19.09,-3.45 37.21,-8.48 54.43,-14.89 5.93,10.75 11.03,23.64 15.37,38.73 4.27,15.02 6.68,31.14 7.23,48.37 -41.96,16.12 -89.22,24.18 -141.93,24.18 -38.73,0 -71.94,-5.37 -99.63,-16.12 -27.7,-10.75 -50.3,-25.64 -67.74,-44.79 -17.5,-19.02 -30.38,-41.75 -38.72,-68.14 -8.33,-26.33 -12.47,-55.13 -12.47,-86.27 0,-30.66 4.27,-59.39 12.88,-86.33 8.62,-26.88 21.37,-50.23 38.31,-70.14 16.95,-19.92 37.9,-35.63 62.91,-47.2 25.01,-11.58 54.16,-17.37 87.51,-17.37 29.01,0 54.84,5.17 77.44,15.37 22.6,10.2 41.76,24.18 57.67,41.96 15.85,17.71 27.84,38.79 35.9,63.25 8.06,24.53 12.06,50.72 12.06,78.69 0,10.2 -0.42,20.25 -1.17,30.25 -0.83,9.92 -1.79,17.84 -2.83,23.77 z m 163.78,-79.86 v 0 c -1.1,-25.77 -8.2,-46.65 -21.43,-62.49 -13.16,-15.85 -31.56,-23.78 -55.19,-23.78 -26.94,0 -47.33,7.52 -61.32,22.54 -13.99,15.09 -22.32,36.31 -25.01,63.73 z"
   id="path80" />
   <path
   class="fil5"
   d="m 10883.39,3969.64 c 19.36,-3.24 38.44,-4.82 57.25,-4.82 18.33,0 37.14,1.58 56.51,4.82 v 423.4 c 0,16.68 0.89,30.18 2.82,40.38 1.86,10.2 4.82,18.12 8.89,23.77 3.99,5.65 9.23,9.58 15.71,11.71 6.41,2.14 14.53,3.24 24.18,3.24 4.28,0 9.03,-0.28 14.13,-0.83 5.1,-0.55 10.06,-1.38 14.88,-2.41 5.93,22.05 8.89,43.55 8.89,64.5 0,4.34 0,8.19 0,11.71 0,3.51 -0.55,7.37 -1.59,11.71 -8.61,2.69 -18.94,4.55 -31.07,5.65 -12.13,1.04 -23.29,1.59 -33.49,1.59 -41.41,0 -74.55,-11.44 -99.56,-34.32 -25.01,-22.8 -37.55,-60.08 -37.55,-111.69 z"
   id="path82" />
  </g><path
     class="fil6"
     d="m 1553.68,4273.88 c 0,-192.55 -155.89,-348.44 -348.54,-348.44 -192.65,0 -348.64,155.89 -348.64,348.44 0,192.4 155.99,348.64 348.64,348.64 192.65,0 348.54,-156.24 348.54,-348.64 z"
     id="path85" /><g
     id="_2602288056448">
   <path
   class="fil7"
   d="m 2543.25,4273.88 c 0,-192.55 -155.99,-348.44 -348.31,-348.44 -192.65,0 -348.66,155.89 -348.66,348.44 0,192.4 156.01,348.64 348.66,348.64 192.32,0 348.31,-156.24 348.31,-348.64 z"
   id="path87" />
  </g><g
     id="_2602288056256">
   <path
   class="fil8"
   d="m 3533.04,4273.88 c 0,-192.55 -155.99,-348.44 -348.53,-348.44 -192.55,0 -348.67,155.89 -348.67,348.44 0,192.4 156.12,348.64 348.67,348.64 192.54,0 348.53,-156.24 348.53,-348.64 z"
   id="path90" />
  </g></g>
 </g>
</svg>
