<svg width="59" height="33" viewBox="0 0 59 33" fill="none" xmlns="http://www.w3.org/2000/svg">
<path d="M37.194 32.8731H24.7527L16.2009 30.8151L7.97887 25.5994L3.63251 20.803L0.220703 19.2122L6.98247 9.42684L18.3655 1.67896L31.14 0.0812988L44.0004 5.16293L58.297 19.9577L45.2889 28.9116L37.194 32.88V32.8731ZM25.0517 30.3272L37.0359 29.8393L46.2062 25.1837L54.3767 19.5592L42.2035 7.70547L31.5282 3.00178L19.2897 4.12529L9.04742 11.612L4.86255 18.3395L6.64919 18.6899L10.0266 23.2871L17.8363 28.2519L25.0551 30.3272H25.0517Z" fill="#F5EC39"/>
<path d="M17.8852 10.3134L19.4211 7.15587L24.7673 5.04968L32.0547 5.69906L37.8888 9.74652L39.5896 14.8488V19.549L36.1056 25.3797L28.3303 27.6473H24.2003L19.909 25.3797L16.6689 19.872V17.1164L18.7751 18.5767L21.6887 18.1712L23.6334 16.3502L23.4719 12.0966L21.2043 10.3134H17.8852Z" fill="#F5EC39"/>
</svg>
