<?xml version="1.0" encoding="UTF-8" standalone="no"?>
<svg version="1.1" id="Camada_1" x="0" y="0" xml:space="preserve" width="100%" height="100%" viewBox="0 0 60 31"
  sodipodi:docname="opty_logo.svg" inkscape:version="1.1.2 (0a00cf5339, 2022-02-04)"
  xmlns:inkscape="http://www.inkscape.org/namespaces/inkscape"
  xmlns:sodipodi="http://sodipodi.sourceforge.net/DTD/sodipodi-0.dtd" xmlns="http://www.w3.org/2000/svg"
  xmlns:svg="http://www.w3.org/2000/svg">
  <defs id="defs40" />
  <sodipodi:namedview id="namedview42" pagecolor="#ffffff" bordercolor="#666666" borderopacity="1.0"
    inkscape:pageshadow="2" inkscape:pageopacity="0.0" inkscape:pagecheckerboard="0" showgrid="false"
    inkscape:zoom="15.399871" inkscape:cx="26.785938" inkscape:cy="22.92227" inkscape:window-width="1920"
    inkscape:window-height="1043" inkscape:window-x="1920" inkscape:window-y="0" inkscape:window-maximized="1"
    inkscape:current-layer="g83" />
  <style type="text/css" id="style2">
    .st3,
    .st4 {
      fill: none;
    }

    .st4 {
      stroke: inherit;
      stroke-width: 2.536;
      stroke-miterlimit: 10;
    }
  </style>
  <g id="g83" transform="translate(-296.438,-55.154)">
    <g id="g76" transform="matrix(0.07767226,0,0,0.0776624,273.41299,50.870608)">
      <path class="part4"
        d="m 696.006,247.822 c -14.3,0 -28.3,-5.9 -37.4,-16.1 v -35.6 c 0,-29.7 15.8,-47.3 40.7,-47.3 27.9,0 38.2,18.7 38.2,48.4 0,31.1 -14.7,50.6 -41.5,50.6 m 367.4,-129.9 c -8.9,-1.2 -22.7,-0.9 -31.7,1.1 -14.6,45.5 -28.5,82.3 -41.8,110.6 -11.3,-27.4 -26,-71.5 -35.9,-105.4 -1,-3.6 -3.1,-5.5 -6.8,-6 -11.9,-1.7 -24.8,-1.4 -37.2,0.9 16.1,51.7 31.1,95.5 57.2,146.4 -10.4,17.9 -21.7,35.2 -32.8,51.4 -2.3,3.4 -2.1,6.5 0.9,9.2 7.1,6.2 15.8,11.5 26.1,16.4 38.3,-53.9 89.3,-151.8 107.2,-217.5 1.1,-4.4 -0.8,-6.6 -5.2,-7.1 z m -354.2,-2.2 c -26.4,0 -44.4,12.1 -55.8,29.4 -2.7,-8.4 -6.9,-16.3 -11.9,-22.7 -2.3,-2.9 -5.1,-3.7 -8.7,-2.5 -10.3,3.5 -18,8.8 -25.6,16.1 9.9,13.2 11.7,19.8 11.7,42.2 v 159.4 c 0,4.1 2,6.5 6,7.1 11.2,1.5 22.4,1.2 33.6,-1 v -79.2 c 12.8,10.3 27.1,16.5 45.5,16.5 42.2,0 74.5,-34.1 74.5,-83.3 0,-49.4 -26.7,-82 -69.3,-82 z m 182.9,131.2 c -4.4,0.9 -9.4,1.6 -15.2,1.6 -19.1,0 -25.3,-13.2 -25.3,-34.1 v -64.2 h 39.1 c 4.1,0 6.6,-2 7.1,-6 1.1,-8.7 0.8,-17.8 -1,-25.2 h -45.1 v -36 c 0,-4.6 -2.7,-5.8 -7.2,-4.9 -12.2,2.5 -21.7,5.9 -32.8,11.4 v 30.3 l -21.2,4.1 c -3.8,0.7 -6,2.8 -6.3,6.6 -0.6,6.2 -0.3,13.3 0.8,19.8 h 26.8 v 70.1 c 0,37.4 22,60.5 60.2,60.5 8.8,0 25.7,-3.3 33.4,-7.7 0,-7.7 -2,-15.6 -4.8,-22.2 -1.8,-3.8 -4.7,-4.9 -8.5,-4.1 z"
        id="path12" />
      <path class="st3"
        d="m 500.006,183.622 c 0,-39.8 -23.2,-73.4 -55.1,-84.5 -31.9,11.2 -55.1,44.8 -55.1,84.5 0,39.8 23.2,73.4 55.1,84.5 31.9,-11.1 55.1,-44.7 55.1,-84.5 z"
        id="path14" />
      <path class="st3"
        d="m 545.306,196.122 c 0.5,-4.1 0.9,-8.2 0.9,-12.4 0,-4.2 -0.4,-8.4 -0.9,-12.4 0.4,4.1 0.6,8.2 0.6,12.4 0,4.2 -0.2,8.3 -0.6,12.4 z"
        id="path16" />
      <path class="st3"
        d="m 344.506,171.222 c -0.5,4.1 -0.9,8.2 -0.9,12.4 0,4.2 0.4,8.4 0.9,12.4 -0.4,-4.1 -0.6,-8.2 -0.6,-12.4 0,-4.2 0.2,-8.3 0.6,-12.4 z"
        id="path18" />
      <path
        d="m 468.006,95.122 c -8,0 -15.8,1.4 -23.1,3.9 31.9,11.2 55.1,44.8 55.1,84.5 0,39.8 -23.2,73.4 -55.1,84.5 7.3,2.6 15.1,3.9 23.1,3.9 39.4,0 72,-33.1 77.3,-76 0.4,-4.1 0.6,-8.2 0.6,-12.4 0,-4.2 -0.2,-8.4 -0.6,-12.4 -5.3,-42.9 -37.9,-76 -77.3,-76 z"
        id="path20" />
      <path
        d="m 344.506,196.122 c -0.5,-4.1 -0.9,-8.2 -0.9,-12.4 0,-4.2 0.4,-8.4 0.9,-12.4 5.4,-56.6 46.8,-102.3 100.4,-112.7 -7.5,-1.4 -15.2,-2.2 -23.1,-2.2 -68.6,0 -124.1,57 -124.1,127.4 0,70.3 55.6,127.3 124.1,127.3 7.9,0 15.6,-0.8 23.1,-2.2 -53.6,-10.6 -95.1,-56.3 -100.4,-112.8 z"
        id="path22" />
      <path class="part3"
        d="m 389.806,183.622 c 0,-39.8 23.2,-73.4 55.1,-84.5 -7.3,-2.6 -15.1,-3.9 -23.1,-3.9 -39.4,0 -72,33.1 -77.3,76 -0.4,4.1 -0.6,8.2 -0.6,12.4 0,4.2 0.2,8.4 0.6,12.4 5.4,42.9 37.9,76 77.3,76 8,0 15.8,-1.4 23.1,-3.9 -31.9,-11.1 -55.1,-44.7 -55.1,-84.5 z"
        id="path24" />
      <path class="part3"
        d="m 468.006,56.322 c -7.9,0 -15.6,0.8 -23.1,2.2 53.6,10.4 95.1,56.1 100.4,112.7 0.5,4.1 0.9,8.2 0.9,12.4 0,4.2 -0.4,8.4 -0.9,12.4 -5.4,56.6 -46.8,102.3 -100.4,112.7 7.5,1.4 15.2,2.2 23.1,2.2 68.6,0 124.1,-57 124.1,-127.3 0.1,-70.3 -55.5,-127.3 -124.1,-127.3 z"
        id="path26" />
      <path
        d="m 545.306,196.122 c -5.4,42.9 -37.9,76 -77.3,76 -8,0 -15.8,-1.4 -23.1,-3.9 -7.3,2.6 -15.1,3.9 -23.1,3.9 -39.4,0 -72,-33.1 -77.3,-76 5.4,56.6 46.8,102.3 100.4,112.7 53.6,-10.5 95.1,-56.2 100.4,-112.7 z"
        id="path28" />
      <path
        d="m 344.506,171.222 c 5.4,-42.9 37.9,-76 77.3,-76 8,0 15.8,1.4 23.1,3.9 7.3,-2.6 15.1,-3.9 23.1,-3.9 39.4,0 72,33.1 77.3,76 -5.4,-56.6 -46.8,-102.3 -100.4,-112.7 -53.6,10.4 -95.1,56.1 -100.4,112.7 z"
        id="path30" />
      <path class="st4 part2"
        d="m 468.006,95.122 c -8,0 -15.8,1.4 -23.1,3.9 31.9,11.2 55.1,44.8 55.1,84.5 0,39.8 -23.2,73.4 -55.1,84.5 7.3,2.6 15.1,3.9 23.1,3.9 39.4,0 72,-33.1 77.3,-76 0.4,-4.1 0.6,-8.2 0.6,-12.4 0,-4.2 -0.2,-8.4 -0.6,-12.4 -5.3,-42.9 -37.9,-76 -77.3,-76 z"
        id="path34" />
      <path class="st4 part2"
        d="m 344.506,196.122 c -0.5,-4.1 -0.9,-8.2 -0.9,-12.4 0,-4.2 0.4,-8.4 0.9,-12.4 5.4,-56.6 46.8,-102.3 100.4,-112.7 -7.5,-1.4 -15.2,-2.2 -23.1,-2.2 -68.6,0 -124.1,57 -124.1,127.4 0,70.3 55.6,127.3 124.1,127.3 7.9,0 15.6,-0.8 23.1,-2.2 -53.6,-10.6 -95.1,-56.3 -100.4,-112.8 z"
        id="path36" />
      <path class="st4 part1"
        d="m 545.306,196.122 c -5.4,42.9 -37.9,76 -77.3,76 -8,0 -15.8,-1.4 -23.1,-3.9 -7.3,2.6 -15.1,3.9 -23.1,3.9 -39.4,0 -72,-33.1 -77.3,-76 5.4,56.6 46.8,102.3 100.4,112.7 53.6,-10.5 95.1,-56.2 100.4,-112.7 z"
        id="path38" />
      <path class="st4 part1"
        d="m 344.506,171.222 c 5.4,-42.9 37.9,-76 77.3,-76 8,0 15.8,1.4 23.1,3.9 7.3,-2.6 15.1,-3.9 23.1,-3.9 39.4,0 72,33.1 77.3,76 -5.4,-56.6 -46.8,-102.3 -100.4,-112.7 -53.6,10.4 -95.1,56.1 -100.4,112.7 z"
        id="path40" />
      <g id="g82" class="text" transform="translate(-276.794,-178.078)">
        <path
          d="m 604.4,601.2 c 0,-12 2.1,-22.4 17.1,-22.4 15,0 17,10.3 17,22.4 0,12.1 -2.1,22.3 -17,22.3 -15,0 -17.1,-10.3 -17.1,-22.3 z m 27.3,0.2 c 0,-9.3 -1,-16 -10.1,-16 -9.2,0 -10.2,6.7 -10.2,16 0,9.3 1,16 10.2,16 9.1,0 10.1,-6.7 10.1,-16 z"
          id="path44" />
        <path d="m 660,623.1 c -5.9,0 -8,-1.9 -8,-8.3 v -37.1 h 6.6 V 614 c 0,2.6 0.2,3.3 3.8,3.3 v 5.8 z"
          id="path46" />
        <path
          d="m 675.8,577.7 h 6.5 v 15.1 c 1.2,-1.9 3.6,-3.3 9.2,-3.3 8.3,0 9.6,5 9.6,12.1 V 623 h -6.6 v -19.9 c 0,-4.8 -0.5,-7.3 -5.4,-7.3 -5.7,0 -6.7,2.8 -6.7,9.7 V 623 h -6.6 z"
          id="path48" />
        <path
          d="m 714.1,613.1 c 0,-9.4 5.4,-12.1 16.9,-12.1 h 1.3 c -0.1,-3.8 -1.1,-5.6 -5.4,-5.6 -3.5,0 -6.3,0.8 -8.2,1.8 l -2.7,-5.4 c 2.7,-1.4 6.5,-2.4 11.6,-2.4 8.8,0 11.1,3.4 11.1,11.5 v 13.3 c 0,2.4 0.2,3 2.5,3 v 5.8 c -0.6,0.1 -1.3,0.1 -1.9,0.1 -3.5,0 -5.3,-0.5 -6,-2.9 -1.9,2.4 -4.8,3.2 -9.3,3.2 -7.7,0 -9.9,-4 -9.9,-10.3 z m 18.2,-2.8 v -4 h -1.2 c -7.7,0 -10.7,0.8 -10.7,6.1 0,4.2 1.7,5.5 5.1,5.5 3.8,0 6.8,-1.5 6.8,-7.6 z"
          id="path50" />
        <path
          d="m 754.5,590.5 5.2,-0.5 0.6,3.5 c 1.4,-2.1 3.8,-3.7 9.2,-3.7 v 6.3 c -7.9,0.1 -8.4,5 -8.4,10.6 V 623 h -6.6 z"
          id="path52" />
        <path
          d="m 800.1,590.5 5.2,-0.5 0.5,3.1 c 1.5,-2.2 4.4,-3.6 10.1,-3.6 9.8,0 11,8 11,17 0,9.1 -1.4,17 -11.2,17 -5.2,0 -7.5,-1.1 -9,-3.1 v 12 h -6.6 z m 20.2,16.2 c 0,-6.7 -0.8,-11.1 -6.4,-11.1 -6.5,0 -7.1,4.5 -7.1,11.1 0,6.6 0.6,10.9 7.1,10.9 5.5,0.1 6.4,-4.1 6.4,-10.9 z"
          id="path54" />
        <path
          d="m 839,606.5 c 0,-10.3 2.7,-17 13.4,-17 11.7,0 11.8,7.4 11.7,20.2 h -18.7 c 0.3,5.4 1.7,8.1 7.2,8.1 4.3,0 6.5,-1 8.4,-1.9 l 2.5,5.1 c -2.7,1.5 -6.1,2.5 -11.3,2.5 -11.1,-0.1 -13.2,-6.5 -13.2,-17 z m 6.3,-2.6 h 12.6 c -0.1,-5.4 -0.2,-8.6 -5.8,-8.6 -5.2,0 -6.5,3.1 -6.8,8.6 z"
          id="path56" />
        <path d="m 885.6,623.1 c -5.9,0 -8,-1.9 -8,-8.3 v -37.1 h 6.6 V 614 c 0,2.6 0.2,3.3 3.8,3.3 v 5.8 z"
          id="path58" />
        <path
          d="m 900.1,606.5 c 0,-9.9 2.3,-17 13.6,-17 11.4,0 13.6,7.2 13.6,17 0,10.1 -2.2,17 -13.6,17 -11.2,0 -13.6,-7 -13.6,-17 z m 20.6,0.2 c 0,-6.5 -0.6,-11 -7,-11 -6.3,0 -7,4.5 -7,11 0,6.4 0.7,11 7,11 6.3,0 7,-4.6 7,-11 z"
          id="path60" />
        <path
          d="m 938.3,621.1 2.5,-5.1 c 2.2,1.1 5.5,2 9,2 3.2,0 4.9,-1.1 4.9,-3.8 0,-2.7 -1.7,-3.6 -6.7,-5.6 -5.7,-2.2 -8.7,-4.4 -8.7,-9.8 0,-6.6 4.3,-9.4 11.1,-9.4 4.3,0 6.8,0.6 9.4,1.7 l -2.6,5.5 c -1.8,-0.8 -4.1,-1.4 -7,-1.4 -3.4,0 -4.5,1.2 -4.5,3.4 0,2.3 1.5,3.2 6.2,5.1 6,2.4 9.1,4.3 9.1,10.4 0,6.4 -4.1,9.3 -11.1,9.3 -4.5,0 -8.6,-0.7 -11.6,-2.3 z"
          id="path62" />
        <path
          d="m 990.1,621.1 2.5,-5.1 c 2.2,1.1 5.5,2 9,2 3.2,0 4.9,-1.1 4.9,-3.8 0,-2.7 -1.7,-3.6 -6.7,-5.6 -5.7,-2.2 -8.7,-4.4 -8.7,-9.8 0,-6.6 4.3,-9.4 11.1,-9.4 4.3,0 6.8,0.6 9.4,1.7 l -2.6,5.5 c -1.8,-0.8 -4.1,-1.4 -7,-1.4 -3.4,0 -4.5,1.2 -4.5,3.4 0,2.3 1.5,3.2 6.2,5.1 6,2.4 9.1,4.3 9.1,10.4 0,6.4 -4.1,9.3 -11.1,9.3 -4.5,0 -8.6,-0.7 -11.6,-2.3 z"
          id="path64" />
        <path
          d="m 1024.2,606.5 c 0,-10.3 2.7,-17 13.4,-17 11.7,0 11.8,7.4 11.7,20.2 h -18.7 c 0.3,5.4 1.7,8.1 7.2,8.1 4.3,0 6.5,-1 8.4,-1.9 l 2.5,5.1 c -2.7,1.5 -6.1,2.5 -11.3,2.5 -11,-0.1 -13.2,-6.5 -13.2,-17 z m 6.4,-2.6 h 12.6 c -0.1,-5.4 -0.2,-8.6 -5.8,-8.6 -5.3,0 -6.5,3.1 -6.8,8.6 z"
          id="path66" />
        <path
          d="m 1062.5,610.4 v -20.3 h 6.7 v 20 c 0,5.1 0.4,7.5 5.9,7.5 5.3,0 5.8,-2.5 5.8,-7.6 v -19.9 h 6.5 v 20.3 c 0,9 -2.1,13.1 -12.4,13.1 -10.2,0 -12.5,-4.1 -12.5,-13.1 z"
          id="path68" />
        <path
          d="m 1099.4,621.1 2.5,-5.1 c 2.2,1.1 5.5,2 9,2 3.2,0 4.9,-1.1 4.9,-3.8 0,-2.7 -1.7,-3.6 -6.7,-5.6 -5.7,-2.2 -8.7,-4.4 -8.7,-9.8 0,-6.6 4.3,-9.4 11.1,-9.4 4.3,0 6.8,0.6 9.4,1.7 l -2.6,5.5 c -1.8,-0.8 -4.1,-1.4 -7,-1.4 -3.4,0 -4.5,1.2 -4.5,3.4 0,2.3 1.5,3.2 6.2,5.1 6,2.4 9.1,4.3 9.1,10.4 0,6.4 -4.1,9.3 -11.1,9.3 -4.5,0 -8.6,-0.7 -11.6,-2.3 z"
          id="path70" />
        <path
          d="m 1152.2,606.5 c 0,-9.9 2.3,-17 13.6,-17 11.4,0 13.6,7.2 13.6,17 0,10.1 -2.2,17 -13.6,17 -11.2,0 -13.6,-7 -13.6,-17 z m 20.6,0.2 c 0,-6.5 -0.6,-11 -7,-11 -6.3,0 -7,4.5 -7,11 0,6.4 0.7,11 7,11 6.4,0 7,-4.6 7,-11 z"
          id="path72" />
        <path d="m 1201,623.1 c -5.9,0 -8,-1.9 -8,-8.3 v -37.1 h 6.6 V 614 c 0,2.6 0.2,3.3 3.8,3.3 v 5.8 z"
          id="path74" />
        <path
          d="m 1216.8,577.7 h 6.5 v 15.1 c 1.2,-1.9 3.6,-3.3 9.2,-3.3 8.3,0 9.6,5 9.6,12.1 V 623 h -6.6 v -19.9 c 0,-4.8 -0.5,-7.3 -5.4,-7.3 -5.7,0 -6.7,2.8 -6.7,9.7 V 623 h -6.6 z"
          id="path76" />
        <path
          d="m 1255.2,606.5 c 0,-9.9 2.3,-17 13.6,-17 11.4,0 13.6,7.2 13.6,17 0,10.1 -2.2,17 -13.6,17 -11.2,0 -13.6,-7 -13.6,-17 z m 20.6,0.2 c 0,-6.5 -0.6,-11 -7,-11 -6.3,0 -7,4.5 -7,11 0,6.4 0.7,11 7,11 6.3,0 7,-4.6 7,-11 z"
          id="path78" />
        <path
          d="m 1293.4,621.1 2.5,-5.1 c 2.2,1.1 5.5,2 9,2 3.2,0 4.9,-1.1 4.9,-3.8 0,-2.7 -1.7,-3.6 -6.7,-5.6 -5.7,-2.2 -8.7,-4.4 -8.7,-9.8 0,-6.6 4.3,-9.4 11.1,-9.4 4.3,0 6.8,0.6 9.4,1.7 l -2.6,5.5 c -1.8,-0.8 -4.1,-1.4 -7,-1.4 -3.4,0 -4.5,1.2 -4.5,3.4 0,2.3 1.5,3.2 6.2,5.1 6,2.4 9.1,4.3 9.1,10.4 0,6.4 -4.1,9.3 -11.1,9.3 -4.5,0 -8.6,-0.7 -11.6,-2.3 z"
          id="path80" />
      </g>
    </g>
  </g>
</svg>
