<svg width="80" height="80" viewBox="0 0 80 80" fill="none" xmlns="http://www.w3.org/2000/svg">
<path d="M62.4997 57.5338C60.1688 59.5734 57.6355 59.4782 57.6355 59.4782H21.6664V65.9713C21.6664 69.5522 24.4072 72.4643 27.7775 72.4643H70.5553C73.9286 72.4643 76.6664 69.5522 76.6664 65.9713V46.4921H64.4442V52.9805C64.4442 52.9805 64.8307 55.4942 62.4997 57.5338Z" fill="#313338"/>
<path d="M70.5553 27.013H64.4442V39.9991H76.6664V33.506C76.6664 29.9218 73.9286 27.013 70.5553 27.013Z" fill="#313338"/>
<path d="M58.333 46.4921V27.013H3.33301V46.4921C3.33301 50.0698 6.07079 52.9852 9.44412 52.9852H52.2219C55.5952 52.9852 58.333 50.0698 58.333 46.4921Z" fill="#313338"/>
<path d="M58.333 14.0267C58.333 10.4458 55.5952 7.53369 52.2219 7.53369H9.44412C6.07079 7.53369 3.33301 10.4458 3.33301 14.0267V20.5198H58.333V14.0267ZM12.4997 17.2668C10.81 17.2668 9.44412 15.8091 9.44412 14.0203C9.44412 12.2282 10.81 10.7737 12.4997 10.7737C14.1894 10.7737 15.5552 12.2282 15.5552 14.0203C15.5552 15.8091 14.1894 17.2668 12.4997 17.2668ZM21.6663 17.2668C19.9766 17.2668 18.6108 15.8091 18.6108 14.0203C18.6108 12.2282 19.9766 10.7737 21.6663 10.7737C23.3561 10.7737 24.7219 12.2282 24.7219 14.0203C24.7219 15.8091 23.3561 17.2668 21.6663 17.2668Z" fill="#313338"/>
</svg>
